<svg id="svg" version="1.1" xmlns="http://www.w3.org/2000/svg" xmlns:xlink="http://www.w3.org/1999/xlink" width="400" height="344.81481481481484" viewBox="0, 0, 400,344.81481481481484"><g id="svgg"><path id="path0" d="M192.202 80.712 C 178.012 81.805,163.154 86.734,151.985 94.053 C 149.264 95.836,148.762 96.408,150.207 96.080 C 165.959 92.503,180.856 96.629,222.346 116.062 C 223.731 116.711,224.947 117.241,225.049 117.241 C 225.150 117.241,226.267 117.723,227.530 118.311 C 249.796 128.682,259.043 127.973,258.069 115.968 C 257.242 105.784,267.949 123.105,273.030 140.172 C 278.533 158.658,278.416 178.789,272.719 193.793 C 271.355 197.384,268.888 202.933,268.119 204.138 C 267.696 204.802,266.665 206.481,265.830 207.869 C 263.418 211.876,262.183 213.698,261.218 214.675 C 260.833 215.065,259.373 216.733,257.975 218.383 C 237.981 241.969,203.463 251.586,172.414 242.219 C 151.004 235.761,131.004 219.713,123.722 203.150 C 120.814 196.538,119.061 191.097,117.760 184.655 C 115.654 174.229,115.907 155.541,118.280 146.207 C 118.448 145.543,118.994 143.374,119.493 141.386 C 120.534 137.229,122.220 131.835,123.104 129.828 C 126.197 122.803,126.647 121.034,125.337 121.034 C 124.217 121.034,117.534 134.466,115.814 140.172 C 107.950 166.260,110.702 190.129,124.202 212.931 C 130.509 223.584,143.516 236.850,152.009 241.292 C 152.830 241.721,154.183 242.541,155.016 243.115 C 155.850 243.688,158.457 245.068,160.811 246.182 C 166.630 248.937,166.648 249.022,161.519 249.659 C 154.470 250.535,143.797 252.240,138.621 253.318 C 128.680 255.386,125.479 256.129,119.655 257.718 C 101.068 262.790,85.706 268.507,69.483 276.391 C 60.004 280.998,60.153 281.169,71.171 278.320 C 74.944 277.345,80.142 276.074,82.723 275.498 C 85.303 274.921,88.345 274.236,89.483 273.975 C 90.621 273.715,92.871 273.245,94.483 272.931 C 96.095 272.617,98.554 272.126,99.947 271.839 C 101.340 271.552,103.357 271.185,104.429 271.023 C 105.502 270.861,108.314 270.404,110.679 270.007 C 166.431 260.661,239.735 260.865,290.345 270.506 C 291.767 270.777,295.103 271.410,297.759 271.912 C 303.839 273.062,315.156 275.543,320.345 276.863 C 325.589 278.197,333.318 280.234,334.825 280.679 C 340.131 282.245,331.442 277.452,319.483 272.215 C 294.025 261.066,264.933 253.159,237.107 249.824 C 230.762 249.063,230.761 249.061,236.364 246.408 C 247.998 240.900,259.300 231.876,267.527 221.527 C 268.754 219.984,272.759 214.237,272.759 214.020 C 272.759 213.914,273.208 213.160,273.757 212.345 C 276.067 208.916,279.552 201.322,281.481 195.517 C 295.363 153.733,276.788 109.126,237.241 89.281 C 224.284 82.779,207.303 79.548,192.202 80.712 M189.463 136.121 C 189.590 136.832,190.064 138.655,190.518 140.172 C 190.972 141.690,191.515 144.172,191.724 145.690 C 192.666 152.511,192.618 153.381,191.207 154.902 C 190.149 156.043,190.108 156.358,191.085 155.835 C 191.861 155.420,192.493 156.009,192.597 157.241 C 192.729 158.805,192.785 158.934,193.255 158.753 C 193.781 158.552,193.852 158.761,195.011 163.929 C 195.652 166.790,195.556 177.121,194.883 177.564 C 194.721 177.671,194.485 179.000,194.360 180.517 C 194.183 182.665,193.984 183.390,193.463 183.793 C 192.898 184.230,192.585 185.117,192.442 186.691 C 192.427 186.863,192.102 186.722,191.722 186.377 C 190.698 185.450,190.676 185.565,190.534 192.683 C 190.461 196.294,190.254 199.534,190.073 199.883 C 189.892 200.232,189.636 201.836,189.504 203.448 C 189.372 205.060,188.886 208.068,188.425 210.133 C 187.538 214.100,187.417 215.172,187.856 215.172 C 188.491 215.172,191.724 211.690,191.724 211.005 C 191.724 210.511,191.885 210.333,192.216 210.460 C 192.725 210.655,194.390 208.981,196.476 206.176 C 197.098 205.340,198.199 203.879,198.923 202.931 C 213.320 184.052,211.742 160.285,194.750 140.104 C 190.335 134.860,189.070 133.908,189.463 136.121 M180.172 139.434 C 177.743 140.358,176.557 141.957,176.555 144.310 C 176.552 149.282,183.189 151.050,185.827 146.780 C 188.169 142.991,184.241 137.888,180.172 139.434 M181.034 141.594 C 181.034 142.222,181.734 142.196,182.682 141.532 C 183.354 141.061,183.448 141.059,183.448 141.513 C 183.448 141.797,183.736 142.233,184.088 142.480 C 185.054 143.160,184.726 146.732,183.667 147.076 C 182.073 147.593,180.324 147.589,180.124 147.066 C 180.016 146.785,179.791 146.640,179.623 146.744 C 179.455 146.848,179.403 146.712,179.506 146.443 C 179.625 146.133,179.401 145.872,178.899 145.735 C 178.418 145.603,178.248 145.415,178.470 145.259 C 178.671 145.116,178.843 144.258,178.852 143.351 C 178.863 142.203,179.065 141.510,179.520 141.067 C 180.213 140.393,181.034 140.678,181.034 141.594 M153.677 148.933 C 153.264 149.086,154.284 149.441,156.608 149.955 C 158.569 150.387,160.425 150.874,160.733 151.037 C 161.042 151.199,161.851 151.437,162.531 151.564 C 163.212 151.692,163.951 152.016,164.174 152.285 C 164.621 152.823,165.803 152.603,166.378 151.875 C 166.568 151.635,167.034 151.375,167.414 151.298 C 167.980 151.184,167.887 151.065,166.897 150.637 C 164.028 149.395,155.423 148.287,153.677 148.933 M165.345 151.379 C 165.228 151.569,164.908 151.724,164.635 151.724 C 164.362 151.724,164.138 151.569,164.138 151.379 C 164.138 151.190,164.457 151.034,164.848 151.034 C 165.238 151.034,165.462 151.190,165.345 151.379 M169.118 151.908 C 169.486 152.186,170.210 152.414,170.727 152.414 C 171.244 152.414,171.718 152.550,171.782 152.717 C 171.958 153.182,174.138 153.571,174.138 153.137 C 174.138 152.936,173.711 152.678,173.190 152.564 C 172.668 152.450,171.554 152.136,170.714 151.868 C 168.782 151.250,168.265 151.262,169.118 151.908 M167.796 153.304 C 167.680 153.604,167.586 153.888,167.586 153.934 C 167.586 153.980,168.052 153.950,168.621 153.867 C 169.405 153.751,169.655 153.849,169.655 154.271 C 169.655 154.577,169.810 154.828,170.000 154.828 C 170.190 154.828,170.345 154.508,170.345 154.118 C 170.345 153.727,170.207 153.493,170.039 153.597 C 169.871 153.700,169.542 153.554,169.307 153.272 C 168.752 152.603,168.059 152.618,167.796 153.304 M171.472 160.948 C 171.568 161.280,172.070 162.948,172.589 164.655 C 176.412 177.230,172.912 181.258,162.069 176.761 C 154.882 173.780,148.822 172.126,144.828 172.055 C 139.854 171.966,139.564 172.213,143.448 173.227 C 150.013 174.942,158.186 179.131,162.098 182.786 C 162.691 183.340,163.305 183.793,163.462 183.793 C 163.618 183.793,163.844 184.099,163.963 184.474 C 164.081 184.848,164.523 185.430,164.943 185.767 C 166.562 187.063,167.749 189.166,169.671 194.138 C 173.007 202.768,173.311 212.179,170.656 224.631 C 169.904 228.158,169.868 228.621,170.345 228.621 C 170.534 228.621,170.690 228.395,170.690 228.118 C 170.690 227.842,171.236 227.182,171.904 226.653 C 173.064 225.732,178.065 219.894,179.493 217.793 C 183.137 212.430,184.500 209.484,186.928 201.724 C 188.941 195.291,187.090 183.337,182.815 175.172 C 179.483 168.807,170.490 157.530,171.472 160.948 M162.489 164.676 C 159.048 167.086,160.849 172.763,165.052 172.757 C 168.832 172.752,170.788 167.624,167.970 165.107 C 166.690 163.963,163.828 163.738,162.489 164.676 M99.542 315.092 C 99.650 315.521,99.875 315.957,100.042 316.060 C 100.514 316.352,100.399 315.721,99.845 314.980 C 99.362 314.334,99.352 314.338,99.542 315.092 M134.288 323.276 C 134.288 328.207,134.337 330.176,134.396 327.652 C 134.455 325.128,134.455 321.093,134.395 318.687 C 134.336 316.280,134.288 318.345,134.288 323.276 M124.237 324.655 C 124.239 325.603,124.306 325.950,124.385 325.426 C 124.465 324.902,124.463 324.126,124.381 323.702 C 124.299 323.278,124.234 323.707,124.237 324.655 M46.294 327.759 C 46.298 328.517,46.368 328.787,46.451 328.358 C 46.533 327.929,46.530 327.308,46.444 326.979 C 46.358 326.649,46.290 327.000,46.294 327.759 M124.241 330.345 C 124.241 331.388,124.306 331.815,124.385 331.293 C 124.464 330.772,124.464 329.918,124.385 329.397 C 124.306 328.875,124.241 329.302,124.241 330.345 M46.148 337.586 C 46.075 338.345,46.137 338.966,46.284 338.966 C 46.431 338.966,46.552 338.345,46.552 337.586 C 46.552 336.828,46.490 336.207,46.416 336.207 C 46.341 336.207,46.220 336.828,46.148 337.586 M124.225 337.759 C 124.229 338.517,124.299 338.787,124.382 338.358 C 124.464 337.929,124.461 337.308,124.375 336.979 C 124.289 336.649,124.221 337.000,124.225 337.759 M143.976 338.032 C 143.829 338.372,143.805 338.747,143.923 338.865 C 144.273 339.216,144.555 338.724,144.394 338.044 C 144.251 337.442,144.233 337.441,143.976 338.032 " stroke="none" fill="#30ad46" fill-rule="evenodd"></path><path id="path1" d="M0.000 172.414 L 0.000 344.828 200.000 344.828 L 400.000 344.828 400.000 315.000 L 400.000 285.172 398.621 285.172 L 397.241 285.172 397.241 142.586 L 397.241 0.000 198.621 0.000 L 0.000 0.000 0.000 172.414 M209.665 80.526 C 212.030 80.815,214.870 81.281,215.976 81.561 C 217.082 81.840,218.286 82.069,218.652 82.069 C 219.482 82.069,226.091 84.069,230.000 85.502 C 232.637 86.470,241.541 90.695,243.276 91.801 C 243.655 92.043,245.214 93.032,246.739 93.998 C 254.721 99.051,264.557 108.262,269.139 114.974 C 269.796 115.936,271.014 117.671,271.846 118.828 C 274.675 122.765,278.192 129.289,280.114 134.167 C 281.845 138.560,283.031 141.926,283.385 143.448 C 283.583 144.302,283.921 145.776,284.136 146.724 C 284.350 147.672,284.663 148.991,284.829 149.655 C 286.887 157.856,287.335 168.540,286.030 178.276 C 285.172 184.678,284.958 185.819,283.800 190.172 C 282.753 194.111,282.164 195.903,280.223 201.052 C 279.118 203.984,274.371 213.223,273.057 215.000 C 272.083 216.317,271.461 217.184,267.933 222.135 C 266.185 224.588,256.657 234.169,253.566 236.583 C 249.251 239.952,245.364 242.414,238.302 246.250 C 233.434 248.895,233.291 248.623,240.000 249.485 C 242.371 249.790,245.474 250.259,246.897 250.527 C 248.319 250.794,251.500 251.339,253.966 251.736 C 256.431 252.134,259.224 252.668,260.172 252.923 C 261.121 253.178,262.595 253.496,263.448 253.630 C 266.517 254.110,281.602 257.888,285.172 259.070 C 286.026 259.353,287.888 259.929,289.310 260.350 C 298.021 262.930,310.179 267.443,318.793 271.296 C 320.879 272.229,323.595 273.440,324.828 273.987 C 333.684 277.913,340.031 281.486,339.354 282.164 C 338.968 282.550,337.685 282.260,330.172 280.092 C 327.897 279.435,325.491 278.777,324.828 278.629 C 324.164 278.481,321.371 277.790,318.621 277.093 C 315.871 276.396,313.000 275.697,312.241 275.540 C 311.483 275.383,309.621 275.001,308.103 274.693 C 306.586 274.384,304.802 273.989,304.138 273.815 C 303.474 273.641,302.078 273.341,301.034 273.148 C 299.991 272.955,296.655 272.334,293.621 271.769 C 283.758 269.933,276.445 268.808,267.414 267.737 C 264.759 267.422,261.500 267.036,260.172 266.878 C 257.696 266.584,252.856 266.124,245.862 265.519 C 216.685 262.995,166.804 263.490,141.379 266.555 C 139.767 266.750,135.655 267.221,132.241 267.603 C 128.828 267.984,125.026 268.449,123.793 268.636 C 122.560 268.823,120.543 269.123,119.310 269.303 C 111.081 270.503,105.034 271.491,103.103 271.952 C 101.871 272.247,100.009 272.607,98.966 272.754 C 96.326 273.124,88.148 274.783,85.862 275.411 C 84.819 275.697,83.225 276.063,82.320 276.222 C 81.415 276.382,80.174 276.667,79.561 276.855 C 78.949 277.044,75.578 277.913,72.069 278.787 C 68.560 279.661,65.147 280.535,64.483 280.728 C 54.350 283.688,62.064 278.680,79.138 271.212 C 81.603 270.134,84.086 269.040,84.655 268.780 C 85.916 268.205,89.461 266.849,93.621 265.351 C 95.328 264.736,98.121 263.726,99.828 263.106 C 101.534 262.487,103.862 261.696,105.000 261.350 C 106.138 261.004,107.767 260.495,108.621 260.219 C 121.027 256.213,139.785 252.013,154.310 249.990 C 158.714 249.376,163.206 248.633,163.344 248.495 C 163.414 248.425,161.565 247.400,159.236 246.218 C 156.906 245.036,154.755 243.851,154.456 243.586 C 154.156 243.321,153.809 243.103,153.683 243.103 C 153.558 243.103,152.329 242.382,150.952 241.500 C 137.517 232.896,127.035 220.943,119.248 205.345 C 116.340 199.522,113.098 189.241,112.124 182.759 C 111.911 181.336,111.563 179.044,111.353 177.664 C 111.142 176.284,110.971 171.862,110.972 167.836 C 110.975 160.922,111.105 159.371,112.366 151.207 C 112.925 147.588,115.379 139.047,116.726 136.034 C 116.980 135.466,117.301 134.534,117.438 133.966 C 117.756 132.649,123.296 122.131,124.170 121.185 C 125.467 119.780,125.118 119.655,119.897 119.655 C 113.581 119.655,114.138 120.525,114.138 110.663 C 114.138 100.845,113.482 101.769,120.542 101.647 L 126.034 101.552 126.126 96.207 C 126.243 89.398,125.329 90.000,135.541 90.000 C 145.522 90.000,144.618 89.371,144.766 96.423 L 144.876 101.707 150.445 101.802 C 157.433 101.921,156.886 101.167,156.886 110.690 C 156.886 120.215,157.437 119.459,150.421 119.578 L 144.828 119.672 144.828 124.508 C 144.828 128.169,144.700 129.592,144.301 130.362 L 143.775 131.379 135.533 131.379 C 125.736 131.379,126.207 131.567,126.207 127.660 C 126.207 123.682,124.860 126.120,121.753 135.723 C 116.765 151.138,115.373 170.020,118.221 183.621 C 119.474 189.603,120.578 193.788,121.404 195.690 C 121.569 196.069,122.185 197.621,122.774 199.138 C 123.846 201.903,127.458 208.976,127.974 209.322 C 128.125 209.424,128.874 210.473,129.637 211.654 C 131.867 215.104,141.401 224.996,144.530 227.104 C 145.357 227.662,147.095 228.891,148.391 229.835 C 153.691 233.696,161.652 237.749,168.793 240.221 C 187.805 246.801,206.549 246.775,225.172 240.141 C 232.294 237.604,243.481 231.192,247.530 227.326 C 247.783 227.084,248.547 226.462,249.227 225.943 C 253.185 222.924,260.738 214.343,264.647 208.424 C 276.658 190.239,279.611 167.015,273.021 142.586 C 270.032 131.506,264.367 119.242,260.102 114.617 C 258.831 113.239,258.667 113.577,258.707 117.500 C 258.747 121.506,258.262 123.090,256.499 124.708 C 254.402 126.633,247.029 126.714,242.586 124.861 C 242.207 124.703,240.578 124.160,238.966 123.654 C 237.353 123.148,234.328 122.033,232.241 121.174 C 228.231 119.525,227.605 119.247,222.414 116.813 C 220.612 115.968,217.586 114.612,215.690 113.799 C 213.793 112.987,212.086 112.204,211.897 112.060 C 211.624 111.853,205.668 109.233,197.069 105.538 C 196.690 105.375,195.661 104.923,194.784 104.535 C 192.532 103.539,183.581 100.208,181.724 99.676 C 180.871 99.431,179.784 99.109,179.310 98.961 C 166.794 95.049,157.380 94.523,149.198 97.279 C 147.101 97.986,146.036 98.032,146.475 97.398 C 146.781 96.954,150.933 93.765,151.891 93.238 C 152.273 93.027,153.595 92.271,154.828 91.557 C 159.301 88.968,163.574 87.016,170.583 84.362 C 180.248 80.703,197.371 79.022,209.665 80.526 M169.540 118.636 C 174.320 120.494,182.252 125.271,184.418 127.597 C 184.782 127.987,185.605 128.692,186.247 129.164 C 187.861 130.351,194.698 137.111,196.938 139.734 C 202.463 146.205,204.049 147.744,204.665 147.233 C 205.037 146.925,205.389 147.088,206.296 147.989 C 209.210 150.883,209.970 151.380,211.478 151.372 C 217.964 151.338,222.461 142.168,224.485 124.846 C 224.967 120.721,225.252 120.782,226.694 125.318 C 230.658 137.796,232.693 151.201,232.182 161.466 C 231.983 165.454,232.017 165.862,232.547 165.862 C 233.446 165.862,235.586 167.069,236.618 168.158 C 240.667 172.434,236.406 179.996,230.470 179.068 C 229.425 178.904,229.367 178.962,228.791 180.742 C 228.214 182.524,227.564 184.169,226.809 185.764 C 225.281 188.993,232.081 187.806,235.778 184.200 C 238.802 181.249,245.862 171.776,245.862 170.668 C 245.862 170.245,246.453 170.251,246.716 170.677 C 246.907 170.986,246.763 172.137,245.811 177.931 C 244.121 188.204,240.361 198.463,235.534 205.970 C 223.125 225.269,203.124 233.027,173.398 230.072 C 168.706 229.605,168.927 230.018,170.132 223.966 C 172.595 211.590,171.915 200.914,168.160 193.021 C 163.566 183.365,154.451 176.667,141.552 173.471 C 138.192 172.638,138.129 171.936,141.361 171.359 C 145.765 170.572,153.101 172.258,163.966 176.554 C 172.751 180.028,175.500 175.553,171.698 163.966 C 170.095 159.079,170.076 158.966,170.848 158.966 C 171.682 158.966,176.444 163.937,178.525 166.982 C 181.737 171.680,182.414 172.772,183.707 175.345 C 187.732 183.355,189.319 193.454,187.739 200.997 C 187.397 202.629,188.118 202.115,189.071 200.048 C 190.497 196.954,189.934 187.402,187.897 180.119 C 183.741 165.267,171.247 154.154,154.390 150.318 C 150.242 149.374,150.264 149.381,150.431 148.879 C 150.628 148.286,152.095 148.018,155.345 147.982 C 162.027 147.909,167.830 149.307,178.793 153.628 C 186.319 156.594,189.121 156.469,190.869 153.090 C 191.965 150.970,190.704 146.371,188.085 142.937 C 187.621 142.329,187.241 141.718,187.241 141.580 C 187.241 139.118,172.487 122.743,167.438 119.600 C 165.830 118.600,165.526 118.124,166.293 117.815 C 166.530 117.719,166.750 117.628,166.781 117.613 C 166.812 117.598,168.053 118.059,169.540 118.636 M211.926 124.300 C 217.861 126.062,219.433 134.260,214.584 138.154 C 207.923 143.503,199.439 137.536,201.765 129.138 C 202.885 125.096,207.387 122.952,211.926 124.300 M184.904 139.504 C 189.641 142.595,187.223 150.003,181.479 149.999 C 178.772 149.997,177.015 148.668,176.050 145.894 C 174.270 140.771,180.241 136.462,184.904 139.504 M168.392 164.416 C 172.152 167.818,169.004 174.244,164.034 173.311 C 158.732 172.317,158.618 164.583,163.888 163.467 C 165.281 163.172,167.545 163.649,168.392 164.416 M205.408 280.379 C 216.563 280.398,227.241 280.553,229.138 280.723 C 231.034 280.893,233.284 281.087,234.138 281.154 C 234.991 281.221,236.310 281.376,237.069 281.499 C 237.828 281.621,239.290 281.797,240.319 281.888 C 241.347 281.980,242.738 282.236,243.410 282.458 C 244.081 282.680,245.166 282.877,245.821 282.896 C 249.001 282.990,246.548 285.482,243.084 285.677 C 241.672 285.756,239.276 285.906,237.759 286.010 C 236.241 286.113,232.532 286.361,229.515 286.560 C 226.499 286.759,223.861 287.033,223.653 287.168 C 223.171 287.482,200.266 287.633,184.138 287.429 C 178.884 287.362,175.360 287.146,163.276 286.152 C 160.810 285.949,157.784 285.716,156.552 285.635 C 153.477 285.430,152.759 285.243,152.759 284.649 C 152.759 284.334,152.428 284.138,151.897 284.138 C 149.775 284.138,150.908 282.828,153.190 282.643 C 154.375 282.547,156.353 282.292,157.586 282.076 C 158.819 281.860,160.759 281.629,161.897 281.562 C 163.034 281.495,164.697 281.272,165.592 281.066 C 166.487 280.860,170.877 280.589,175.347 280.463 C 179.818 280.337,183.557 280.103,183.656 279.944 C 183.754 279.784,184.126 279.809,184.481 279.999 C 184.890 280.218,192.579 280.358,205.408 280.379 M300.517 306.106 C 302.567 306.889,306.207 309.157,306.207 309.650 C 306.207 310.216,303.757 312.759,303.212 312.759 C 302.936 312.759,302.007 312.275,301.148 311.684 C 291.247 304.872,277.836 316.096,282.147 327.586 C 285.112 335.488,295.521 338.814,301.944 333.912 L 303.559 332.679 304.883 334.157 C 306.481 335.941,306.479 335.916,305.111 337.068 C 295.582 345.086,278.910 338.676,276.858 326.207 C 274.621 312.613,287.939 301.299,300.517 306.106 M60.327 305.844 C 61.113 306.341,61.107 309.592,60.320 310.013 C 59.979 310.196,57.070 310.345,53.856 310.345 C 46.990 310.345,47.598 309.837,47.591 315.575 C 47.584 320.787,47.003 320.345,53.853 320.345 C 60.691 320.345,61.034 320.451,61.034 322.574 C 61.034 325.084,60.802 325.172,54.182 325.172 C 46.953 325.172,47.586 324.444,47.586 332.759 C 47.586 340.363,47.592 340.345,45.172 340.345 C 44.300 340.345,43.400 340.159,43.172 339.931 C 42.576 339.335,42.576 306.527,43.172 305.931 C 43.675 305.428,59.542 305.347,60.327 305.844 M74.606 306.152 C 74.922 306.502,76.585 310.342,78.301 314.687 C 80.018 319.031,82.253 324.603,83.269 327.069 C 88.749 340.368,88.706 340.126,85.650 340.274 C 83.219 340.391,82.952 340.149,81.923 336.897 C 81.593 335.853,81.063 334.457,80.745 333.793 L 80.166 332.586 72.682 332.493 C 63.982 332.385,64.913 331.958,63.126 336.876 C 62.545 338.477,61.875 339.910,61.638 340.061 C 60.897 340.531,57.706 340.387,57.271 339.864 C 56.825 339.326,56.724 339.624,60.512 330.345 C 61.789 327.216,63.133 323.879,63.498 322.931 C 63.863 321.983,64.638 320.043,65.222 318.621 C 66.576 315.320,66.594 315.275,68.135 311.379 C 68.847 309.578,69.558 307.956,69.715 307.776 C 69.872 307.596,70.000 307.177,70.000 306.845 C 70.000 305.490,73.527 304.960,74.606 306.152 M96.278 306.121 C 96.566 306.453,97.396 307.888,98.124 309.310 C 98.851 310.733,100.502 313.797,101.792 316.119 C 103.082 318.441,104.138 320.415,104.138 320.504 C 104.138 320.738,109.330 330.117,109.647 330.457 C 109.793 330.613,110.730 329.216,111.729 327.353 C 114.461 322.256,115.539 320.279,116.209 319.138 C 116.543 318.569,117.586 316.629,118.527 314.828 C 123.595 305.121,123.331 305.455,125.843 305.588 L 127.759 305.690 127.946 311.552 C 128.346 324.060,128.149 339.652,127.586 340.007 C 126.598 340.632,123.854 340.413,123.460 339.678 C 123.236 339.258,123.103 334.970,123.103 328.126 C 123.103 322.140,122.977 317.241,122.822 317.241 C 122.513 317.241,122.077 317.996,119.130 323.621 C 118.038 325.707,117.022 327.571,116.873 327.763 C 116.725 327.955,115.876 329.507,114.987 331.211 C 109.294 342.131,110.290 341.868,105.875 333.621 C 105.062 332.103,103.971 330.086,103.449 329.138 C 102.928 328.190,101.884 326.250,101.129 324.828 C 100.375 323.405,99.159 321.116,98.427 319.741 C 96.309 315.762,96.472 315.048,96.400 328.630 C 96.369 334.609,96.226 339.691,96.082 339.923 C 95.812 340.360,93.229 340.504,92.270 340.136 C 91.554 339.861,91.426 306.643,92.138 305.931 C 92.790 305.278,95.662 305.410,96.278 306.121 M137.734 306.059 C 138.445 306.771,138.568 339.225,137.862 339.931 C 137.313 340.480,133.912 340.471,133.571 339.920 C 133.294 339.472,133.392 306.233,133.671 305.780 C 133.982 305.278,137.171 305.497,137.734 306.059 M146.506 305.979 C 146.770 306.298,146.917 310.924,146.979 320.893 L 147.069 335.345 152.069 335.429 C 158.851 335.542,158.621 335.462,158.621 337.723 C 158.621 338.887,158.442 339.719,158.137 339.972 C 157.513 340.490,143.136 340.446,142.500 339.924 C 142.034 339.542,141.838 306.208,142.299 305.747 C 142.729 305.317,146.111 305.503,146.506 305.979 M155.134 305.831 C 155.572 306.109,158.816 311.979,161.964 318.190 C 163.765 321.743,163.051 322.484,169.194 310.690 C 171.823 305.642,171.950 305.517,174.480 305.517 C 177.794 305.517,177.761 305.835,173.750 312.626 C 171.704 316.090,168.673 321.617,167.060 324.828 L 165.933 327.069 165.880 333.423 C 165.819 340.838,165.981 340.345,163.612 340.345 C 161.067 340.345,161.036 340.249,161.028 332.523 C 161.022 326.041,161.021 326.033,160.046 324.310 C 157.059 319.035,154.138 313.746,154.138 313.614 C 154.138 313.530,153.611 312.638,152.967 311.631 C 151.304 309.032,150.237 306.641,150.469 306.036 C 150.693 305.451,154.286 305.294,155.134 305.831 M183.040 305.815 C 183.289 305.974,183.689 306.476,183.927 306.931 C 184.165 307.386,185.493 309.931,186.877 312.586 C 188.262 315.241,189.665 317.879,189.996 318.448 C 190.326 319.017,191.139 320.491,191.800 321.724 C 192.462 322.957,193.815 325.478,194.807 327.328 C 196.911 331.249,197.179 331.351,198.431 328.707 C 199.411 326.640,199.917 325.679,202.289 321.379 C 203.682 318.855,204.634 317.068,208.539 309.655 C 209.588 307.664,210.492 305.979,210.548 305.911 C 210.856 305.536,214.228 305.507,214.672 305.876 C 215.081 306.215,215.263 338.778,214.863 339.930 C 214.844 339.987,213.858 339.987,212.672 339.930 L 210.517 339.828 210.443 328.144 C 210.402 321.718,210.311 316.403,210.240 316.332 C 210.125 316.217,208.581 318.986,204.638 326.379 C 203.930 327.707,202.791 329.807,202.106 331.046 C 201.422 332.284,200.086 334.804,199.138 336.644 C 196.973 340.846,197.068 340.867,194.294 335.603 C 191.656 330.599,190.377 328.229,188.849 325.517 C 186.815 321.904,184.441 317.411,184.250 316.810 C 183.645 314.913,183.448 317.416,183.367 328.017 L 183.276 339.828 181.139 339.930 L 179.002 340.032 178.898 323.206 C 178.840 313.951,178.928 306.185,179.094 305.948 C 179.431 305.465,182.333 305.368,183.040 305.815 M236.121 305.973 C 236.737 306.365,236.678 309.466,236.045 309.991 C 235.688 310.288,234.038 310.390,230.442 310.339 C 227.638 310.300,224.836 310.285,224.215 310.306 L 223.085 310.345 223.180 315.431 L 223.276 320.517 229.310 320.585 C 232.629 320.623,235.539 320.662,235.776 320.672 C 236.071 320.684,236.207 321.343,236.207 322.759 C 236.207 324.171,236.070 324.835,235.776 324.851 C 235.539 324.864,233.004 324.855,230.144 324.830 C 227.283 324.806,224.529 324.889,224.023 325.016 L 223.103 325.247 223.103 330.345 C 223.103 336.467,222.410 335.918,230.038 335.837 C 236.867 335.764,236.923 335.799,236.252 339.747 C 236.227 339.893,232.289 339.970,227.500 339.920 L 218.793 339.828 218.621 323.103 C 218.526 313.905,218.574 306.197,218.728 305.974 C 219.051 305.505,235.384 305.505,236.121 305.973 M248.812 305.821 C 267.008 306.795,272.361 330.306,256.188 338.220 C 252.713 339.920,238.231 341.012,238.295 339.569 C 238.306 339.332,238.232 331.734,238.132 322.684 C 237.962 307.362,237.990 306.207,238.544 305.885 C 239.239 305.479,242.099 305.461,248.812 305.821 M273.964 305.859 C 274.319 306.434,274.153 339.778,273.794 339.999 C 273.530 340.163,272.162 340.169,269.914 340.017 C 269.594 339.996,269.566 306.066,269.885 305.747 C 270.248 305.384,273.729 305.480,273.964 305.859 M324.499 306.101 C 324.644 306.254,326.255 310.181,328.079 314.828 C 329.904 319.474,331.724 324.052,332.123 325.000 C 332.522 325.948,332.979 327.034,333.139 327.414 C 333.299 327.793,333.748 328.957,334.138 330.000 C 334.528 331.043,334.993 332.207,335.173 332.586 C 335.352 332.966,335.793 334.045,336.151 334.984 C 337.539 338.621,337.621 337.843,337.568 321.551 C 337.513 304.494,337.368 305.432,340.037 305.584 L 341.897 305.690 342.069 320.690 L 342.241 335.690 348.034 335.784 L 353.827 335.879 353.724 337.853 L 353.621 339.828 343.793 340.000 C 332.278 340.202,333.379 340.587,331.455 335.690 L 330.100 332.241 322.387 332.241 L 314.674 332.241 313.159 336.121 L 311.645 340.000 309.271 340.000 C 306.399 340.000,306.432 340.347,308.765 334.698 C 309.793 332.209,311.349 328.388,312.223 326.207 C 313.097 324.026,313.951 321.931,314.122 321.552 C 315.086 319.410,319.655 307.642,319.655 307.302 C 319.655 306.003,323.507 305.049,324.499 306.101 M243.530 310.245 L 242.750 310.394 242.841 323.042 L 242.931 335.690 247.127 335.635 C 260.903 335.457,266.041 320.689,255.240 312.315 C 253.125 310.675,246.980 309.589,243.530 310.245 M321.741 313.857 C 321.504 314.485,321.184 315.310,321.031 315.690 C 319.565 319.314,316.552 327.296,316.552 327.554 C 316.552 327.865,326.902 328.259,327.845 327.983 C 328.499 327.792,328.399 327.349,326.780 323.261 C 325.957 321.183,324.775 318.164,324.153 316.552 C 322.694 312.770,322.311 312.343,321.741 313.857 M70.919 316.638 C 70.191 318.582,69.066 321.569,68.418 323.276 C 66.572 328.137,66.365 327.931,73.111 327.931 C 78.864 327.931,78.646 328.210,76.727 323.302 C 75.869 321.108,74.779 318.265,74.305 316.984 C 72.521 312.171,72.588 312.178,70.919 316.638 " stroke="none" fill="#fbfbfb" fill-rule="evenodd"></path><path id="path2" d="M127.610 90.426 C 126.469 91.020,126.213 92.239,126.234 96.979 C 126.257 102.094,126.646 101.724,121.238 101.724 C 113.748 101.724,114.149 101.204,114.143 110.910 C 114.137 119.906,113.697 119.296,120.282 119.449 C 122.998 119.513,125.356 119.701,125.522 119.869 C 125.963 120.313,126.471 124.239,126.497 127.414 C 126.532 131.556,126.255 131.439,135.775 131.311 C 145.052 131.186,144.243 131.789,144.483 124.828 L 144.655 119.828 150.114 119.655 C 157.129 119.434,156.552 120.238,156.552 110.690 C 156.552 101.147,157.101 101.929,150.291 101.784 C 144.000 101.650,144.495 102.127,144.488 96.187 C 144.481 89.679,145.197 90.193,135.977 90.081 C 130.428 90.014,128.228 90.105,127.610 90.426 M206.319 149.741 C 206.422 149.978,207.191 151.729,208.028 153.631 C 213.543 166.157,214.481 179.747,210.639 191.451 C 209.447 195.082,206.029 201.708,204.157 204.018 C 198.725 210.717,196.691 212.880,194.623 214.157 C 193.882 214.614,192.733 215.471,192.069 216.062 C 189.403 218.435,183.430 222.107,176.724 225.496 C 170.094 228.847,170.154 229.229,177.414 229.874 C 201.364 232.000,220.615 225.021,231.803 210.156 C 236.269 204.223,237.923 201.278,240.670 194.373 C 243.176 188.075,246.042 176.411,245.794 173.518 C 245.690 172.304,245.684 172.309,243.396 175.719 C 236.929 185.359,231.983 189.094,227.164 187.976 C 224.785 187.425,221.557 181.724,220.129 175.551 C 219.840 174.300,219.398 172.810,219.149 172.241 C 218.899 171.672,218.115 169.578,217.407 167.586 C 215.048 160.955,211.250 154.061,208.145 150.776 C 206.799 149.352,205.941 148.866,206.319 149.741 M229.310 166.593 C 226.091 167.873,224.518 172.101,226.056 175.341 C 228.648 180.803,237.586 178.690,237.586 172.615 C 237.586 168.485,232.981 165.134,229.310 166.593 M289.483 306.164 C 272.077 311.285,272.903 336.330,290.599 340.019 C 298.051 341.572,307.793 337.614,304.734 334.276 L 303.554 332.988 302.314 333.933 C 295.536 339.104,285.141 335.890,282.067 327.674 C 277.663 315.903,291.086 304.513,301.265 311.383 C 303.184 312.678,303.480 312.671,304.615 311.301 C 305.818 309.849,305.679 309.366,303.669 308.020 C 300.245 305.728,293.822 304.887,289.483 306.164 M226.682 306.120 L 219.055 306.220 218.911 307.506 C 218.465 311.498,218.811 339.347,219.310 339.680 C 219.629 339.893,222.848 339.987,227.685 339.926 C 236.294 339.818,236.191 339.845,236.202 337.715 C 236.210 336.002,235.799 335.887,229.285 335.784 L 223.276 335.690 223.276 330.345 L 223.276 325.000 229.475 324.828 L 235.674 324.655 236.007 323.707 C 236.221 323.097,236.221 322.420,236.007 321.810 L 235.674 320.862 229.424 320.768 L 223.174 320.674 223.048 317.665 C 222.979 316.009,222.981 313.608,223.052 312.328 L 223.181 310.000 229.280 310.000 C 236.041 310.000,236.207 309.949,236.207 307.874 C 236.207 306.640,235.426 305.706,234.592 305.941 C 234.437 305.985,230.878 306.065,226.682 306.120 M240.517 306.189 L 238.448 306.379 238.359 322.644 C 238.281 336.667,238.340 338.980,238.782 339.423 C 239.443 340.083,251.192 340.003,253.103 339.325 C 266.302 334.645,269.811 319.240,259.785 309.997 C 256.140 306.638,249.621 305.349,240.517 306.189 M179.194 306.703 C 179.082 306.993,178.983 314.358,178.972 323.068 C 178.951 341.304,178.834 340.719,182.328 339.783 L 183.103 339.575 183.109 328.322 C 183.115 314.520,183.153 314.399,185.864 319.483 C 186.674 321.000,187.839 323.172,188.453 324.310 C 189.068 325.448,190.112 327.388,190.775 328.621 C 191.437 329.853,192.735 332.259,193.658 333.966 C 194.581 335.672,195.571 337.534,195.858 338.102 C 196.145 338.671,196.612 339.177,196.897 339.228 C 197.465 339.329,197.630 339.068,200.719 333.185 C 201.888 330.959,203.274 328.362,203.799 327.414 C 204.324 326.466,205.205 324.836,205.757 323.793 C 208.754 318.131,210.146 315.885,210.405 316.292 C 210.556 316.530,210.681 321.797,210.684 327.997 C 210.690 340.184,210.603 339.665,212.676 339.893 C 214.923 340.141,214.828 340.900,214.828 322.716 L 214.828 306.207 212.790 306.207 L 210.752 306.207 209.295 308.879 C 206.982 313.120,206.135 314.681,203.264 320.000 C 201.780 322.750,199.851 326.319,198.979 327.931 C 197.297 331.038,196.802 331.385,196.024 330.000 C 195.337 328.779,192.480 323.485,190.534 319.828 C 189.626 318.121,188.456 315.948,187.935 315.000 C 187.414 314.052,186.442 312.267,185.776 311.034 C 183.040 305.970,183.435 306.391,181.308 306.277 C 179.843 306.199,179.349 306.298,179.194 306.703 M269.864 306.752 C 269.563 307.537,269.616 338.715,269.919 339.192 C 270.137 339.534,271.961 339.797,273.362 339.689 C 273.701 339.662,273.793 336.063,273.793 322.931 L 273.793 306.207 271.933 306.207 C 270.556 306.207,270.020 306.348,269.864 306.752 M320.414 306.621 C 320.186 306.848,320.000 307.171,320.000 307.337 C 320.000 307.503,319.443 308.985,318.763 310.630 C 318.082 312.275,317.236 314.319,316.883 315.172 C 315.403 318.746,311.594 328.260,310.855 330.231 C 310.416 331.401,309.719 333.108,309.305 334.024 C 308.891 334.940,308.264 336.511,307.911 337.514 L 307.269 339.338 308.200 339.692 C 310.587 340.599,311.592 339.835,312.938 336.086 C 314.493 331.758,313.957 332.016,321.564 331.923 C 330.914 331.807,330.081 331.512,331.584 335.475 C 333.405 340.276,332.579 339.952,343.026 339.959 C 354.115 339.967,354.593 339.830,353.576 336.934 L 353.260 336.034 347.579 335.862 L 341.897 335.690 341.724 321.034 L 341.552 306.379 339.655 306.379 L 337.759 306.379 337.669 321.810 C 337.619 330.297,337.447 337.241,337.285 337.241 C 336.897 337.241,335.864 334.886,332.069 325.345 C 324.069 305.237,324.556 306.207,322.474 306.207 C 321.568 306.207,320.641 306.393,320.414 306.621 M252.368 310.649 C 261.734 313.564,264.059 326.108,256.500 332.937 C 253.970 335.222,252.513 335.653,247.241 335.672 L 242.586 335.690 242.496 323.278 C 242.446 316.451,242.480 310.671,242.571 310.433 C 242.849 309.707,249.839 309.862,252.368 310.649 M322.991 313.190 C 323.245 313.590,325.177 318.513,327.615 324.971 C 328.919 328.424,329.102 328.311,322.388 328.198 C 316.026 328.092,315.866 328.010,317.015 325.444 C 317.671 323.980,320.345 317.007,320.345 316.760 C 320.345 316.656,320.724 315.714,321.188 314.665 C 322.033 312.753,322.482 312.386,322.991 313.190 " stroke="none" fill="#e02158" fill-rule="evenodd"></path><path id="path3" d="M168.966 120.358 C 170.009 121.340,171.855 123.019,173.068 124.089 C 179.293 129.580,185.198 136.958,188.976 143.966 C 192.319 150.167,192.713 148.384,190.136 138.707 C 189.619 136.763,189.292 135.075,189.411 134.957 C 190.234 134.134,198.303 143.982,202.019 150.345 C 202.628 151.388,203.270 152.474,203.447 152.759 C 203.847 153.404,205.369 157.138,206.259 159.655 C 211.426 174.280,208.560 190.160,198.298 203.748 C 197.243 205.146,196.028 206.775,195.598 207.369 C 194.522 208.854,188.291 215.172,187.902 215.172 C 187.420 215.172,187.514 214.231,188.404 210.138 C 190.150 202.114,189.782 199.712,187.428 203.762 C 186.866 204.727,186.225 205.517,186.002 205.517 C 185.780 205.517,185.518 205.866,185.422 206.293 C 184.880 208.681,182.351 213.586,179.493 217.793 C 178.065 219.894,173.064 225.732,171.904 226.653 C 171.236 227.182,170.690 227.829,170.690 228.089 C 170.690 228.350,170.496 228.635,170.259 228.723 C 169.709 228.927,171.520 229.660,172.522 229.640 C 173.161 229.626,173.118 229.556,172.241 229.180 L 171.207 228.736 172.931 227.639 C 173.879 227.035,175.586 226.071,176.724 225.496 C 183.430 222.107,189.403 218.435,192.069 216.062 C 192.733 215.471,193.882 214.614,194.623 214.157 C 196.691 212.880,198.725 210.717,204.157 204.018 C 214.104 191.748,215.695 171.045,208.028 153.631 C 207.191 151.729,206.422 149.978,206.319 149.741 C 205.941 148.866,206.799 149.352,208.145 150.776 C 211.261 154.073,215.076 161.004,217.395 167.586 C 218.097 169.578,218.815 171.476,218.991 171.805 C 219.166 172.135,219.684 173.841,220.141 175.599 C 221.851 182.173,225.089 187.949,227.047 187.921 C 227.696 187.911,227.706 187.879,227.155 187.559 C 226.376 187.105,226.392 186.209,227.211 184.393 C 227.573 183.589,228.125 182.128,228.436 181.147 C 229.036 179.261,229.402 178.800,230.517 178.525 C 230.922 178.426,230.684 178.339,229.940 178.316 C 227.508 178.239,225.489 175.594,225.465 172.452 C 225.435 168.582,228.898 165.581,232.305 166.527 C 234.213 167.057,234.478 166.979,233.103 166.293 L 231.897 165.690 232.009 160.690 C 232.269 149.077,230.024 135.072,226.288 125.003 L 225.393 122.592 224.954 123.624 C 224.712 124.191,224.507 125.212,224.498 125.892 C 224.480 127.373,222.929 136.223,222.388 137.931 C 219.299 147.696,216.343 151.379,211.596 151.379 C 209.795 151.379,206.991 149.823,206.050 148.301 C 205.931 148.108,205.242 147.791,204.521 147.596 C 203.558 147.337,202.716 146.669,201.358 145.087 C 188.715 130.358,175.202 119.489,168.610 118.747 L 167.069 118.573 168.966 120.358 M125.800 123.305 C 125.702 123.679,125.831 124.181,126.087 124.420 C 126.626 124.924,126.691 124.446,126.241 123.294 C 125.982 122.632,125.975 122.633,125.800 123.305 M204.917 125.486 C 201.024 128.003,200.211 133.246,203.149 136.901 C 207.783 142.668,217.203 139.478,217.234 132.133 C 217.261 125.562,210.470 121.898,204.917 125.486 M235.452 167.893 C 236.080 168.483,236.686 168.966,236.799 168.966 C 237.156 168.966,235.726 167.537,235.004 167.172 C 234.622 166.979,234.824 167.304,235.452 167.893 M237.159 170.000 C 237.299 170.474,237.414 171.740,237.414 172.813 C 237.414 173.885,237.528 174.584,237.667 174.364 C 238.087 173.704,237.933 171.276,237.402 170.172 C 237.025 169.390,236.966 169.348,237.159 170.000 M243.075 175.733 C 241.723 177.748,240.764 179.305,240.944 179.194 C 241.124 179.083,242.265 177.484,243.480 175.641 C 245.609 172.413,245.698 172.327,245.907 173.300 L 246.125 174.310 246.166 173.190 C 246.232 171.393,245.685 171.842,243.075 175.733 M236.235 176.243 C 235.317 177.395,234.454 177.933,232.931 178.300 C 232.086 178.504,232.041 178.557,232.690 178.585 C 234.025 178.645,237.798 175.959,237.208 175.369 C 237.123 175.284,236.685 175.677,236.235 176.243 M244.674 180.536 C 244.545 181.228,244.507 181.864,244.592 181.948 C 244.676 182.032,244.851 181.535,244.981 180.843 C 245.111 180.151,245.148 179.516,245.064 179.431 C 244.979 179.347,244.804 179.844,244.674 180.536 M237.729 182.603 C 235.432 185.263,231.694 187.695,229.483 187.967 L 227.759 188.179 229.343 188.227 C 231.639 188.298,235.970 185.416,238.647 182.035 C 240.235 180.031,239.623 180.409,237.729 182.603 M243.692 185.071 C 243.363 186.323,243.155 187.408,243.229 187.482 C 243.303 187.556,243.639 186.599,243.976 185.355 C 244.312 184.111,244.521 183.026,244.438 182.944 C 244.356 182.862,244.020 183.819,243.692 185.071 M165.456 186.979 C 166.444 188.416,167.858 189.869,167.556 189.138 C 167.197 188.267,165.649 186.240,165.065 185.875 C 164.601 185.585,164.711 185.898,165.456 186.979 M240.862 193.868 C 239.282 197.881,239.137 198.311,239.619 197.560 C 240.184 196.679,242.438 190.934,242.335 190.637 C 242.284 190.487,241.621 191.941,240.862 193.868 M238.174 200.182 C 237.665 201.220,237.322 202.069,237.412 202.069 C 237.644 202.069,239.383 198.579,239.228 198.424 C 239.158 198.353,238.683 199.144,238.174 200.182 M236.250 203.626 C 235.230 205.353,235.333 205.604,236.410 204.019 C 236.901 203.296,237.231 202.633,237.142 202.545 C 237.054 202.456,236.652 202.943,236.250 203.626 M234.133 206.983 C 228.805 214.460,224.113 218.851,217.181 222.845 C 215.618 223.746,214.473 224.483,214.636 224.483 C 217.640 224.483,229.693 214.179,233.788 208.111 C 235.639 205.368,235.906 204.494,234.133 206.983 M213.259 224.791 C 213.078 224.961,211.457 225.667,209.655 226.361 C 207.853 227.055,206.845 227.525,207.414 227.406 C 208.746 227.128,213.521 225.228,213.948 224.806 C 214.376 224.384,213.706 224.370,213.259 224.791 M204.655 227.931 C 204.220 228.118,204.157 228.227,204.483 228.227 C 204.767 228.227,205.310 228.094,205.690 227.931 C 206.124 227.744,206.188 227.635,205.862 227.635 C 205.578 227.635,205.034 227.768,204.655 227.931 M194.745 229.899 C 195.174 229.982,195.795 229.978,196.125 229.892 C 196.454 229.806,196.103 229.738,195.345 229.742 C 194.586 229.746,194.316 229.817,194.745 229.899 M178.707 230.247 C 179.228 230.326,180.082 230.326,180.603 230.247 C 181.125 230.168,180.698 230.103,179.655 230.103 C 178.612 230.103,178.185 230.168,178.707 230.247 M191.642 230.244 C 192.071 230.326,192.692 230.323,193.021 230.237 C 193.351 230.151,193.000 230.083,192.241 230.087 C 191.483 230.091,191.213 230.161,191.642 230.244 " stroke="none" fill="#df9d31" fill-rule="evenodd"></path><path id="path4" d="M397.241 142.586 L 397.241 285.172 398.621 285.172 L 400.000 285.172 400.000 142.586 L 400.000 0.000 398.621 0.000 L 397.241 0.000 397.241 142.586 M188.621 80.414 C 182.166 81.196,174.528 82.868,170.583 84.362 C 163.574 87.016,159.301 88.968,154.828 91.557 C 153.595 92.271,152.273 93.027,151.891 93.238 C 150.933 93.765,146.781 96.954,146.475 97.398 C 146.036 98.032,147.101 97.986,149.198 97.279 C 157.380 94.523,166.794 95.049,179.310 98.961 C 179.784 99.109,180.871 99.431,181.724 99.676 C 183.581 100.208,192.532 103.539,194.784 104.535 C 195.661 104.923,196.690 105.375,197.069 105.538 C 205.668 109.233,211.624 111.853,211.897 112.060 C 212.086 112.204,213.793 112.987,215.690 113.799 C 217.586 114.612,220.612 115.968,222.414 116.813 C 227.605 119.247,228.231 119.525,232.241 121.174 C 234.328 122.033,237.353 123.148,238.966 123.654 C 240.578 124.160,242.207 124.703,242.586 124.861 C 247.029 126.714,254.402 126.633,256.499 124.708 C 258.262 123.090,258.747 121.506,258.707 117.500 C 258.667 113.577,258.831 113.239,260.102 114.617 C 264.367 119.242,270.032 131.506,273.021 142.586 C 279.611 167.015,276.658 190.239,264.647 208.424 C 260.738 214.343,253.185 222.924,249.227 225.943 C 248.547 226.462,247.783 227.084,247.530 227.326 C 243.481 231.192,232.294 237.604,225.172 240.141 C 206.549 246.775,187.805 246.801,168.793 240.221 C 161.652 237.749,153.691 233.696,148.391 229.835 C 147.095 228.891,145.357 227.662,144.530 227.104 C 141.401 224.996,131.867 215.104,129.637 211.654 C 128.874 210.473,128.125 209.424,127.974 209.322 C 127.458 208.976,123.846 201.903,122.774 199.138 C 122.185 197.621,121.569 196.069,121.404 195.690 C 120.578 193.788,119.474 189.603,118.221 183.621 C 116.340 174.637,116.355 160.888,118.259 149.828 C 119.942 140.051,124.990 124.593,126.246 125.369 C 126.645 125.615,126.628 125.138,126.216 124.486 C 125.780 123.796,125.417 124.227,124.477 126.552 C 124.055 127.595,123.437 129.069,123.103 129.828 C 122.219 131.838,120.533 137.234,119.493 141.386 C 118.994 143.374,118.448 145.543,118.280 146.207 C 115.907 155.541,115.654 174.229,117.760 184.655 C 119.973 195.616,124.251 205.934,129.503 212.979 C 160.099 254.021,225.435 256.769,257.975 218.383 C 259.373 216.733,260.833 215.065,261.218 214.675 C 262.183 213.698,263.418 211.876,265.830 207.869 C 266.665 206.481,267.696 204.802,268.119 204.138 C 269.664 201.717,272.942 193.621,274.333 188.793 C 279.897 169.475,276.961 144.620,266.678 123.990 C 261.440 113.481,257.575 109.880,258.069 115.968 C 259.043 127.973,249.796 128.682,227.530 118.311 C 226.267 117.723,225.150 117.241,225.049 117.241 C 224.947 117.241,223.731 116.711,222.346 116.062 C 180.856 96.629,165.959 92.503,150.207 96.080 C 148.762 96.408,149.264 95.836,151.985 94.053 C 176.415 78.045,210.992 76.109,237.241 89.281 C 276.788 109.126,295.363 153.733,281.481 195.517 C 279.552 201.322,276.067 208.916,273.757 212.345 C 273.208 213.160,272.759 213.914,272.759 214.020 C 272.759 214.237,268.754 219.984,267.527 221.527 C 259.300 231.876,247.998 240.900,236.364 246.408 C 230.761 249.061,230.762 249.063,237.107 249.824 C 264.933 253.159,294.025 261.066,319.483 272.215 C 331.442 277.452,340.131 282.245,334.825 280.679 C 333.318 280.234,325.589 278.197,320.345 276.863 C 315.156 275.543,303.839 273.062,297.759 271.912 C 295.103 271.410,291.767 270.777,290.345 270.506 C 239.735 260.865,166.431 260.661,110.679 270.007 C 108.314 270.404,105.502 270.861,104.429 271.023 C 103.357 271.185,101.340 271.552,99.947 271.839 C 98.554 272.126,96.095 272.617,94.483 272.931 C 92.871 273.245,90.621 273.715,89.483 273.975 C 88.345 274.236,85.303 274.921,82.723 275.498 C 80.142 276.074,74.944 277.345,71.171 278.320 C 60.153 281.169,60.004 280.998,69.483 276.391 C 85.706 268.507,101.068 262.790,119.655 257.718 C 125.479 256.129,128.680 255.386,138.621 253.318 C 143.797 252.240,154.470 250.535,161.519 249.659 C 166.648 249.022,166.630 248.937,160.811 246.182 C 158.457 245.068,155.850 243.688,155.016 243.115 C 154.183 242.541,152.830 241.721,152.009 241.292 C 143.516 236.850,130.509 223.584,124.202 212.931 C 110.702 190.129,107.950 166.260,115.814 140.172 C 117.076 135.985,122.019 125.474,124.366 121.986 C 125.449 120.377,125.502 120.183,124.997 119.683 C 124.494 119.186,124.466 119.192,124.680 119.759 C 124.831 120.157,124.664 120.652,124.214 121.138 C 123.308 122.118,117.765 132.611,117.438 133.966 C 117.301 134.534,116.980 135.466,116.726 136.034 C 115.379 139.047,112.925 147.588,112.366 151.207 C 111.105 159.371,110.975 160.922,110.972 167.836 C 110.971 171.862,111.142 176.284,111.353 177.664 C 111.563 179.044,111.911 181.336,112.124 182.759 C 113.098 189.241,116.340 199.522,119.248 205.345 C 127.035 220.943,137.517 232.896,150.952 241.500 C 152.329 242.382,153.558 243.103,153.683 243.103 C 153.809 243.103,154.156 243.321,154.456 243.586 C 154.755 243.851,156.906 245.036,159.236 246.218 C 161.565 247.400,163.414 248.425,163.344 248.495 C 163.206 248.633,158.714 249.376,154.310 249.990 C 139.785 252.013,121.027 256.213,108.621 260.219 C 107.767 260.495,106.138 261.004,105.000 261.350 C 103.862 261.696,101.534 262.487,99.828 263.106 C 98.121 263.726,95.328 264.736,93.621 265.351 C 89.461 266.849,85.916 268.205,84.655 268.780 C 84.086 269.040,81.603 270.134,79.138 271.212 C 62.064 278.680,54.350 283.688,64.483 280.728 C 65.147 280.535,68.560 279.661,72.069 278.787 C 75.578 277.913,78.949 277.044,79.561 276.855 C 80.174 276.667,81.415 276.382,82.320 276.222 C 83.225 276.063,84.819 275.697,85.862 275.411 C 88.148 274.783,96.326 273.124,98.966 272.754 C 100.009 272.607,101.871 272.247,103.103 271.952 C 105.034 271.491,111.081 270.503,119.310 269.303 C 120.543 269.123,122.560 268.823,123.793 268.636 C 125.026 268.449,128.828 267.984,132.241 267.603 C 135.655 267.221,139.767 266.750,141.379 266.555 C 166.804 263.490,216.685 262.995,245.862 265.519 C 252.856 266.124,257.696 266.584,260.172 266.878 C 261.500 267.036,264.759 267.422,267.414 267.737 C 276.445 268.808,283.758 269.933,293.621 271.769 C 296.655 272.334,299.991 272.955,301.034 273.148 C 302.078 273.341,303.474 273.641,304.138 273.815 C 304.802 273.989,306.586 274.384,308.103 274.693 C 309.621 275.001,311.483 275.383,312.241 275.540 C 313.000 275.697,315.871 276.396,318.621 277.093 C 321.371 277.790,324.164 278.481,324.828 278.629 C 325.491 278.777,327.897 279.435,330.172 280.092 C 337.685 282.260,338.968 282.550,339.354 282.164 C 340.031 281.486,333.684 277.913,324.828 273.987 C 323.595 273.440,320.879 272.229,318.793 271.296 C 310.179 267.443,298.021 262.930,289.310 260.350 C 287.888 259.929,286.026 259.353,285.172 259.070 C 281.602 257.888,266.517 254.110,263.448 253.630 C 262.595 253.496,261.121 253.178,260.172 252.923 C 259.224 252.668,256.431 252.134,253.966 251.736 C 251.500 251.339,248.319 250.794,246.897 250.527 C 245.474 250.259,242.371 249.790,240.000 249.485 C 233.291 248.623,233.434 248.895,238.302 246.250 C 245.364 242.414,249.251 239.952,253.566 236.583 C 256.657 234.169,266.185 224.588,267.933 222.135 C 271.461 217.184,272.083 216.317,273.057 215.000 C 276.487 210.362,281.532 198.704,283.800 190.172 C 284.958 185.819,285.172 184.678,286.030 178.276 C 287.335 168.540,286.887 157.856,284.829 149.655 C 284.663 148.991,284.350 147.672,284.136 146.724 C 283.921 145.776,283.583 144.302,283.385 143.448 C 283.031 141.926,281.845 138.560,280.114 134.167 C 278.192 129.289,274.675 122.765,271.846 118.828 C 271.014 117.671,269.796 115.936,269.139 114.974 C 264.557 108.262,254.721 99.051,246.739 93.998 C 245.214 93.032,243.655 92.043,243.276 91.801 C 241.541 90.695,232.637 86.470,230.000 85.502 C 226.091 84.069,219.482 82.069,218.652 82.069 C 218.286 82.069,217.082 81.840,215.976 81.561 C 210.386 80.147,195.847 79.537,188.621 80.414 M126.810 90.372 C 126.453 90.580,126.221 91.104,126.241 91.655 L 126.276 92.586 126.515 91.727 C 126.646 91.254,127.135 90.675,127.601 90.439 C 128.067 90.203,128.216 90.013,127.931 90.016 C 127.647 90.019,127.142 90.179,126.810 90.372 M143.362 90.356 C 143.789 90.527,144.138 90.853,144.138 91.081 C 144.138 91.308,144.238 91.395,144.359 91.273 C 144.696 90.937,143.785 89.997,143.147 90.022 C 142.768 90.037,142.837 90.145,143.362 90.356 M144.619 96.379 C 144.619 99.034,144.673 100.075,144.739 98.692 C 144.805 97.309,144.804 95.136,144.738 93.864 C 144.672 92.592,144.618 93.724,144.619 96.379 M114.492 102.230 C 114.262 102.508,114.153 102.935,114.251 103.178 C 114.367 103.468,114.438 103.422,114.456 103.046 C 114.471 102.730,114.909 102.315,115.431 102.125 C 116.237 101.830,116.269 101.775,115.646 101.751 C 115.242 101.736,114.723 101.952,114.492 102.230 M155.431 102.080 C 155.858 102.251,156.207 102.578,156.207 102.805 C 156.207 103.032,156.307 103.119,156.428 102.997 C 156.765 102.661,155.854 101.721,155.216 101.746 C 154.837 101.761,154.906 101.869,155.431 102.080 M156.698 110.690 C 156.698 114.767,156.748 116.435,156.809 114.397 C 156.870 112.358,156.870 109.022,156.809 106.983 C 156.748 104.944,156.698 106.612,156.698 110.690 M166.249 117.900 C 165.620 118.296,165.935 118.738,167.499 119.655 L 168.793 120.414 167.957 119.518 L 167.121 118.621 168.130 118.610 C 168.861 118.603,168.996 118.519,168.621 118.307 C 167.654 117.760,166.726 117.601,166.249 117.900 M114.138 118.303 C 114.138 119.177,114.899 119.658,116.190 119.600 L 117.414 119.545 116.298 119.406 C 115.662 119.327,114.957 118.947,114.660 118.522 C 114.289 117.993,114.138 117.929,114.138 118.303 M156.098 118.751 C 155.992 119.029,155.546 119.325,155.107 119.409 C 154.367 119.550,154.363 119.565,155.044 119.608 C 155.764 119.654,156.823 118.777,156.471 118.425 C 156.373 118.327,156.205 118.474,156.098 118.751 M119.230 119.560 C 119.850 119.637,120.781 119.635,121.299 119.557 C 121.817 119.478,121.310 119.415,120.172 119.417 C 119.034 119.419,118.611 119.484,119.230 119.560 M144.620 124.828 C 144.620 127.578,144.673 128.703,144.739 127.328 C 144.804 125.953,144.804 123.703,144.739 122.328 C 144.673 120.953,144.620 122.078,144.620 124.828 M225.052 121.641 C 224.963 121.784,224.793 122.521,224.673 123.278 L 224.457 124.655 224.930 123.621 L 225.403 122.586 225.871 123.871 C 226.566 125.777,226.682 125.184,226.014 123.141 C 225.423 121.334,225.330 121.190,225.052 121.641 M208.017 124.040 C 208.539 124.119,209.392 124.119,209.914 124.040 C 210.435 123.961,210.009 123.896,208.966 123.896 C 207.922 123.896,207.496 123.961,208.017 124.040 M176.373 127.525 C 178.266 129.455,179.884 131.034,179.968 131.034 C 180.216 131.034,175.455 126.127,174.138 125.025 C 173.474 124.470,174.480 125.595,176.373 127.525 M204.046 125.702 C 203.338 126.183,202.759 126.651,202.759 126.741 C 202.759 126.832,203.379 126.496,204.138 125.994 C 205.342 125.196,205.750 124.828,205.425 124.828 C 205.374 124.828,204.753 125.221,204.046 125.702 M126.265 129.027 C 126.207 130.284,126.870 131.379,127.688 131.379 C 127.906 131.379,127.749 131.144,127.339 130.857 C 126.863 130.523,126.544 129.869,126.458 129.047 L 126.323 127.759 126.265 129.027 M187.103 129.914 C 187.216 130.056,189.888 132.810,193.040 136.034 C 196.193 139.259,197.944 140.924,196.932 139.734 C 194.993 137.456,185.767 128.238,187.103 129.914 M143.896 130.467 C 143.745 130.723,143.388 131.021,143.103 131.129 C 142.686 131.287,142.700 131.330,143.178 131.352 C 143.503 131.367,143.935 131.069,144.138 130.690 C 144.547 129.925,144.333 129.727,143.896 130.467 M217.328 132.241 C 217.332 133.000,217.403 133.270,217.485 132.841 C 217.568 132.412,217.565 131.791,217.478 131.461 C 217.392 131.132,217.325 131.483,217.328 132.241 M181.168 132.861 C 181.899 133.753,182.569 134.483,182.657 134.483 C 182.892 134.483,180.708 131.776,180.239 131.486 C 180.019 131.350,180.437 131.969,181.168 132.861 M202.347 136.428 C 202.538 136.785,203.049 137.385,203.482 137.762 L 204.268 138.448 203.497 137.338 C 202.599 136.044,201.806 135.416,202.347 136.428 M222.454 136.610 C 222.432 136.926,222.324 137.469,222.215 137.817 C 222.027 138.415,222.037 138.416,222.411 137.834 C 222.628 137.496,222.735 136.953,222.649 136.627 C 222.509 136.093,222.490 136.091,222.454 136.610 M180.343 138.587 C 175.006 140.277,174.014 146.453,178.627 149.265 C 183.097 151.990,188.810 147.356,187.100 142.393 C 186.458 140.529,186.640 140.218,187.416 141.853 C 187.734 142.523,188.227 143.265,188.511 143.501 C 188.795 143.736,188.534 143.084,187.930 142.051 C 186.726 139.991,186.015 139.086,186.406 140.112 C 186.593 140.603,186.313 140.512,185.133 139.698 C 183.496 138.567,181.712 138.154,180.343 138.587 M184.142 139.835 C 184.618 140.078,185.355 140.895,185.780 141.651 C 189.014 147.407,180.662 152.426,177.226 146.792 C 174.586 142.461,179.534 137.484,184.142 139.835 M210.345 139.855 L 208.793 140.331 210.172 140.134 C 210.931 140.026,211.784 139.801,212.069 139.634 C 212.786 139.214,212.176 139.292,210.345 139.855 M179.520 141.067 C 179.065 141.510,178.863 142.203,178.852 143.351 C 178.843 144.258,178.671 145.116,178.470 145.259 C 178.248 145.415,178.418 145.603,178.899 145.735 C 179.401 145.872,179.625 146.133,179.506 146.443 C 179.403 146.712,179.455 146.848,179.623 146.744 C 179.791 146.640,180.016 146.785,180.124 147.066 C 180.324 147.589,182.073 147.593,183.667 147.076 C 184.726 146.732,185.054 143.160,184.088 142.480 C 183.736 142.233,183.448 141.797,183.448 141.513 C 183.448 141.059,183.354 141.061,182.682 141.532 C 181.734 142.196,181.034 142.222,181.034 141.594 C 181.034 140.678,180.213 140.393,179.520 141.067 M219.044 145.714 C 218.618 146.365,218.338 146.897,218.422 146.897 C 218.661 146.897,220.090 144.803,219.947 144.660 C 219.877 144.590,219.471 145.064,219.044 145.714 M202.240 146.153 C 202.616 146.597,203.235 147.120,203.617 147.316 C 204.349 147.691,204.243 147.575,202.589 146.202 C 201.593 145.375,201.581 145.373,202.240 146.153 M190.000 146.363 C 190.000 146.468,190.310 147.133,190.690 147.841 C 192.512 151.242,190.727 155.159,187.106 155.702 C 185.322 155.970,183.721 155.570,178.793 153.628 C 167.830 149.307,162.027 147.909,155.345 147.982 C 152.095 148.018,150.628 148.286,150.431 148.879 C 150.264 149.381,150.242 149.374,154.390 150.318 C 171.247 154.154,183.741 165.267,187.897 180.119 C 189.934 187.402,190.497 196.954,189.071 200.048 C 188.118 202.115,187.397 202.629,187.739 200.997 C 189.319 193.454,187.732 183.355,183.707 175.345 C 182.414 172.772,181.737 171.680,178.525 166.982 C 176.444 163.937,171.682 158.966,170.848 158.966 C 170.076 158.966,170.095 159.079,171.698 163.966 C 175.500 175.553,172.751 180.028,163.966 176.554 C 153.101 172.258,145.765 170.572,141.361 171.359 C 138.129 171.936,138.192 172.638,141.552 173.471 C 161.451 178.402,171.441 190.646,171.496 210.172 C 171.512 215.878,171.274 218.269,170.124 223.966 C 168.964 229.704,169.100 229.946,173.448 229.915 L 175.690 229.899 173.184 229.668 C 169.660 229.344,169.711 229.466,170.795 223.885 C 172.378 215.732,172.513 214.318,172.302 208.103 C 172.096 202.022,171.544 198.918,169.940 194.828 C 169.000 192.430,167.266 189.022,166.859 188.770 C 166.688 188.664,165.949 187.695,165.215 186.617 C 161.327 180.894,152.859 175.686,143.448 173.227 C 139.564 172.213,139.854 171.966,144.828 172.055 C 148.822 172.126,154.882 173.780,162.069 176.761 C 170.640 180.316,174.014 178.915,173.933 171.835 C 173.903 169.142,173.662 168.018,172.003 162.823 C 171.163 160.190,171.323 159.917,172.822 161.431 C 181.903 170.607,187.145 181.615,187.494 192.241 C 187.677 197.794,187.389 200.231,186.018 204.741 C 185.595 206.132,186.365 205.559,187.525 203.621 C 188.149 202.578,188.804 201.724,188.980 201.724 C 189.938 201.724,190.396 199.033,190.529 192.627 C 190.676 185.566,190.698 185.451,191.722 186.377 C 192.102 186.722,192.427 186.863,192.442 186.691 C 192.585 185.117,192.898 184.230,193.463 183.793 C 193.984 183.390,194.183 182.665,194.360 180.517 C 194.485 179.000,194.721 177.671,194.883 177.564 C 195.556 177.121,195.652 166.790,195.011 163.929 C 193.852 158.761,193.781 158.552,193.255 158.753 C 192.785 158.934,192.729 158.805,192.597 157.241 C 192.493 156.009,191.861 155.420,191.085 155.835 C 190.147 156.337,190.141 156.048,191.068 155.072 C 192.097 153.988,192.419 152.970,192.379 150.926 C 192.350 149.386,191.857 146.841,191.759 147.723 C 191.740 147.893,191.336 147.613,190.862 147.102 C 190.388 146.590,190.000 146.258,190.000 146.363 M231.473 147.931 C 231.473 148.784,231.540 149.134,231.623 148.707 C 231.705 148.280,231.705 147.582,231.623 147.155 C 231.540 146.728,231.473 147.078,231.473 147.931 M204.726 147.113 C 204.608 147.231,204.965 147.658,205.521 148.061 C 206.076 148.464,207.195 149.320,208.007 149.964 C 209.045 150.787,208.841 150.506,207.321 149.016 C 205.014 146.755,205.055 146.785,204.726 147.113 M163.103 149.554 C 166.351 150.258,168.420 151.095,167.414 151.298 C 167.034 151.375,166.568 151.635,166.378 151.875 C 165.803 152.603,164.621 152.823,164.174 152.285 C 163.951 152.016,163.212 151.692,162.531 151.564 C 161.851 151.437,161.042 151.199,160.733 151.037 C 160.425 150.874,158.569 150.387,156.608 149.955 C 154.284 149.441,153.264 149.086,153.677 148.933 C 154.667 148.567,160.245 148.934,163.103 149.554 M231.823 152.241 C 231.825 153.190,231.892 153.537,231.972 153.013 C 232.051 152.488,232.049 151.712,231.967 151.288 C 231.885 150.864,231.820 151.293,231.823 152.241 M164.138 151.379 C 164.138 151.569,164.362 151.724,164.635 151.724 C 164.908 151.724,165.228 151.569,165.345 151.379 C 165.462 151.190,165.238 151.034,164.848 151.034 C 164.457 151.034,164.138 151.190,164.138 151.379 M170.714 151.868 C 171.554 152.136,172.668 152.450,173.190 152.564 C 173.711 152.678,174.138 152.936,174.138 153.137 C 174.138 153.571,171.958 153.182,171.782 152.717 C 171.718 152.550,171.244 152.414,170.727 152.414 C 170.210 152.414,169.486 152.186,169.118 151.908 C 168.265 151.262,168.782 151.250,170.714 151.868 M169.307 153.272 C 169.542 153.554,169.871 153.700,170.039 153.597 C 170.207 153.493,170.345 153.727,170.345 154.118 C 170.345 154.508,170.190 154.828,170.000 154.828 C 169.810 154.828,169.655 154.577,169.655 154.271 C 169.655 153.849,169.405 153.751,168.621 153.867 C 168.052 153.950,167.586 153.980,167.586 153.934 C 167.586 152.846,168.623 152.447,169.307 153.272 M232.182 157.759 C 232.184 159.086,232.246 159.587,232.321 158.872 C 232.395 158.156,232.394 157.070,232.318 156.458 C 232.242 155.846,232.181 156.431,232.182 157.759 M163.888 163.467 C 161.432 163.987,160.000 165.824,160.000 168.454 C 160.000 174.717,169.405 175.099,169.923 168.857 C 170.232 165.129,167.513 162.700,163.888 163.467 M231.811 164.310 C 231.815 165.069,231.886 165.339,231.968 164.910 C 232.051 164.481,232.047 163.860,231.961 163.530 C 231.875 163.201,231.807 163.552,231.811 164.310 M167.970 165.107 C 170.125 167.032,169.709 170.516,167.136 172.084 C 163.374 174.378,159.146 170.192,161.205 166.211 C 162.413 163.875,165.946 163.299,167.970 165.107 M233.789 166.597 C 236.466 167.783,237.485 169.168,237.935 172.228 C 238.156 173.735,238.196 173.801,238.233 172.724 C 238.340 169.628,235.193 165.749,232.686 165.886 C 232.442 165.900,232.938 166.219,233.789 166.597 M245.862 170.668 C 245.862 171.209,240.734 178.661,238.907 180.776 C 237.965 181.866,237.360 182.759,237.563 182.759 C 237.765 182.759,237.933 182.642,237.935 182.500 C 237.938 182.358,238.562 181.571,239.323 180.752 C 240.084 179.932,241.793 177.643,243.120 175.665 C 246.598 170.481,246.809 170.914,245.117 179.760 C 244.725 181.809,244.473 183.554,244.558 183.638 C 244.911 183.991,247.026 171.177,246.701 170.652 C 246.450 170.246,245.862 170.257,245.862 170.668 M237.397 174.914 C 237.097 175.904,235.977 177.155,234.655 177.976 C 234.071 178.338,233.852 178.619,234.152 178.619 C 234.833 178.621,237.439 175.932,237.745 174.914 C 237.873 174.487,237.900 174.138,237.805 174.138 C 237.710 174.138,237.527 174.487,237.397 174.914 M230.528 178.987 C 231.133 179.163,232.005 179.162,232.597 178.985 C 233.458 178.728,233.293 178.680,231.552 178.681 C 229.796 178.683,229.641 178.729,230.528 178.987 M236.024 184.052 L 235.418 185.000 236.330 184.164 C 237.315 183.260,237.405 183.103,236.936 183.103 C 236.768 183.103,236.358 183.530,236.024 184.052 M243.480 186.928 C 243.246 187.706,243.134 188.421,243.229 188.517 C 243.325 188.612,243.579 188.038,243.793 187.241 C 244.301 185.354,244.032 185.085,243.480 186.928 M232.153 186.709 C 231.346 187.171,229.949 187.607,229.050 187.678 L 227.414 187.807 229.077 187.869 C 230.538 187.924,233.793 186.635,233.793 186.002 C 233.793 185.783,233.711 185.819,232.153 186.709 M240.947 194.550 C 240.252 196.280,239.823 197.554,239.993 197.382 C 240.389 196.980,242.504 191.700,242.336 191.532 C 242.266 191.462,241.641 192.820,240.947 194.550 M238.301 200.509 C 237.651 201.841,236.449 203.978,235.631 205.259 C 234.812 206.539,234.220 207.586,234.315 207.586 C 234.851 207.586,239.823 198.855,239.588 198.325 C 239.530 198.194,238.951 199.177,238.301 200.509 M232.964 209.323 C 232.457 210.088,230.388 212.454,228.365 214.581 C 226.114 216.948,225.607 217.579,227.060 216.207 C 229.354 214.040,229.982 213.380,232.278 210.723 C 233.312 209.526,234.309 207.931,234.023 207.931 C 233.947 207.931,233.470 208.557,232.964 209.323 M223.103 219.342 C 222.440 219.918,222.209 220.238,222.590 220.054 C 223.219 219.750,224.783 218.263,224.450 218.285 C 224.373 218.290,223.767 218.766,223.103 219.342 M220.517 221.237 L 219.483 222.126 220.603 221.384 C 221.220 220.976,221.724 220.576,221.724 220.494 C 221.724 220.236,221.578 220.326,220.517 221.237 M202.931 228.621 C 202.496 228.807,202.433 228.917,202.759 228.917 C 203.043 228.917,203.586 228.784,203.966 228.621 C 204.400 228.434,204.464 228.324,204.138 228.324 C 203.853 228.324,203.310 228.458,202.931 228.621 M198.448 229.489 C 197.310 229.729,196.767 229.935,197.241 229.947 C 197.716 229.960,199.034 229.760,200.172 229.503 C 201.310 229.246,201.853 229.040,201.379 229.045 C 200.905 229.050,199.586 229.250,198.448 229.489 M177.095 230.410 C 177.839 230.542,181.784 230.636,185.862 230.618 C 189.940 230.601,192.888 230.537,192.414 230.478 C 190.588 230.248,175.815 230.182,177.095 230.410 M193.879 230.238 C 194.211 230.324,194.754 230.324,195.086 230.238 C 195.418 230.151,195.147 230.080,194.483 230.080 C 193.819 230.080,193.547 230.151,193.879 230.238 M183.656 279.944 C 183.557 280.103,179.818 280.337,175.347 280.463 C 170.877 280.589,166.487 280.860,165.592 281.066 C 164.697 281.272,163.034 281.495,161.897 281.562 C 160.759 281.629,158.819 281.860,157.586 282.076 C 156.353 282.292,154.375 282.547,153.190 282.643 C 150.908 282.828,149.775 284.138,151.897 284.138 C 152.428 284.138,152.759 284.334,152.759 284.649 C 152.759 285.243,153.477 285.430,156.552 285.635 C 157.784 285.716,160.810 285.949,163.276 286.152 C 175.360 287.146,178.884 287.362,184.138 287.429 C 200.266 287.633,223.171 287.482,223.653 287.168 C 223.861 287.033,226.499 286.759,229.515 286.560 C 232.532 286.361,236.241 286.113,237.759 286.010 C 239.276 285.906,241.672 285.756,243.084 285.677 C 246.548 285.482,249.001 282.990,245.821 282.896 C 245.166 282.877,244.081 282.680,243.410 282.458 C 242.738 282.236,241.347 281.980,240.319 281.888 C 239.290 281.797,237.828 281.621,237.069 281.499 C 236.310 281.376,234.991 281.221,234.138 281.154 C 233.284 281.087,231.034 280.893,229.138 280.723 C 227.241 280.553,216.563 280.398,205.408 280.379 C 192.579 280.358,184.890 280.218,184.481 279.999 C 184.126 279.809,183.754 279.784,183.656 279.944 M293.707 305.422 C 294.323 305.498,295.332 305.498,295.948 305.422 C 296.565 305.345,296.060 305.283,294.828 305.283 C 293.595 305.283,293.091 305.345,293.707 305.422 M43.172 305.931 C 42.576 306.527,42.576 339.335,43.172 339.931 C 43.400 340.159,44.300 340.345,45.172 340.345 C 47.592 340.345,47.586 340.363,47.586 332.759 C 47.586 324.444,46.953 325.172,54.182 325.172 C 60.802 325.172,61.034 325.084,61.034 322.574 C 61.034 320.451,60.691 320.345,53.853 320.345 C 47.003 320.345,47.584 320.787,47.591 315.575 C 47.598 309.837,46.990 310.345,53.856 310.345 C 57.070 310.345,59.979 310.196,60.320 310.013 C 61.107 309.592,61.113 306.341,60.327 305.844 C 59.542 305.347,43.675 305.428,43.172 305.931 M70.603 305.890 C 70.272 306.083,70.000 306.513,70.000 306.845 C 70.000 307.177,69.872 307.596,69.715 307.776 C 69.558 307.956,68.847 309.578,68.135 311.379 C 66.594 315.275,66.576 315.320,65.222 318.621 C 64.638 320.043,63.863 321.983,63.498 322.931 C 63.133 323.879,61.789 327.216,60.512 330.345 C 56.724 339.624,56.825 339.326,57.271 339.864 C 57.706 340.387,60.897 340.531,61.638 340.061 C 61.875 339.910,62.545 338.477,63.126 336.876 C 64.913 331.958,63.982 332.385,72.682 332.493 L 80.166 332.586 80.745 333.793 C 81.063 334.457,81.593 335.853,81.923 336.897 C 82.952 340.149,83.219 340.391,85.650 340.274 C 88.706 340.126,88.749 340.368,83.269 327.069 C 82.253 324.603,80.018 319.031,78.301 314.687 C 74.554 305.202,73.619 304.133,70.603 305.890 M92.138 305.931 C 91.426 306.643,91.554 339.861,92.270 340.136 C 93.229 340.504,95.812 340.360,96.082 339.923 C 96.226 339.691,96.369 334.609,96.400 328.630 C 96.472 315.048,96.309 315.762,98.427 319.741 C 99.159 321.116,100.375 323.405,101.129 324.828 C 101.884 326.250,102.928 328.190,103.449 329.138 C 103.971 330.086,105.062 332.103,105.875 333.621 C 110.290 341.868,109.294 342.131,114.987 331.211 C 115.876 329.507,116.725 327.955,116.873 327.763 C 117.022 327.571,118.038 325.707,119.130 323.621 C 122.077 317.996,122.513 317.241,122.822 317.241 C 122.977 317.241,123.103 322.140,123.103 328.126 C 123.103 334.970,123.236 339.258,123.460 339.678 C 123.854 340.413,126.598 340.632,127.586 340.007 C 128.149 339.652,128.346 324.060,127.946 311.552 L 127.759 305.690 125.843 305.588 C 123.331 305.455,123.595 305.121,118.527 314.828 C 117.586 316.629,116.543 318.569,116.209 319.138 C 115.539 320.279,114.461 322.256,111.729 327.353 C 110.730 329.216,109.793 330.613,109.647 330.457 C 109.330 330.117,104.138 320.738,104.138 320.504 C 104.138 320.415,103.082 318.441,101.792 316.119 C 100.502 313.797,98.851 310.733,98.124 309.310 C 96.200 305.548,93.848 304.221,92.138 305.931 M133.671 305.780 C 133.392 306.233,133.294 339.472,133.571 339.920 C 133.912 340.471,137.313 340.480,137.862 339.931 C 138.568 339.225,138.445 306.771,137.734 306.059 C 137.171 305.497,133.982 305.278,133.671 305.780 M142.299 305.747 C 141.838 306.208,142.034 339.542,142.500 339.924 C 143.136 340.446,157.513 340.490,158.137 339.972 C 158.442 339.719,158.621 338.887,158.621 337.723 C 158.621 335.462,158.851 335.542,152.069 335.429 L 147.069 335.345 146.979 320.893 C 146.917 310.924,146.770 306.298,146.506 305.979 C 146.111 305.503,142.729 305.317,142.299 305.747 M150.469 306.036 C 150.237 306.641,151.304 309.032,152.967 311.631 C 153.611 312.638,154.138 313.530,154.138 313.614 C 154.138 313.746,157.059 319.035,160.046 324.310 C 161.021 326.033,161.022 326.041,161.028 332.523 C 161.036 340.249,161.067 340.345,163.612 340.345 C 165.981 340.345,165.819 340.838,165.880 333.423 L 165.933 327.069 167.060 324.828 C 168.673 321.617,171.704 316.090,173.750 312.626 C 177.761 305.835,177.794 305.517,174.480 305.517 C 171.950 305.517,171.823 305.642,169.194 310.690 C 163.051 322.484,163.765 321.743,161.964 318.190 C 158.816 311.979,155.572 306.109,155.134 305.831 C 154.286 305.294,150.693 305.451,150.469 306.036 M179.034 305.931 C 178.507 306.459,178.496 308.158,179.019 308.481 C 179.272 308.638,179.323 308.575,179.159 308.310 C 178.153 306.682,181.929 305.171,183.379 306.621 C 183.687 306.929,183.793 306.932,183.793 306.633 C 183.793 305.615,179.921 305.044,179.034 305.931 M210.718 305.862 C 210.375 306.096,206.805 312.759,207.022 312.759 C 207.117 312.759,207.991 311.284,208.966 309.483 L 210.737 306.207 212.782 306.207 L 214.828 306.207 214.907 314.741 L 214.987 323.276 215.086 314.870 C 215.157 308.812,215.072 306.329,214.780 305.977 C 214.394 305.512,211.355 305.426,210.718 305.862 M218.609 306.048 C 218.325 306.390,218.311 306.805,218.561 307.488 L 218.911 308.448 218.938 307.346 L 218.966 306.243 226.983 306.139 C 236.081 306.020,236.207 306.045,236.207 307.901 C 236.207 309.810,235.824 309.966,230.840 310.087 L 226.379 310.195 231.052 310.270 C 234.315 310.322,235.849 310.220,236.138 309.931 C 236.687 309.382,236.674 306.325,236.121 305.973 C 235.286 305.443,219.054 305.512,218.609 306.048 M238.534 305.890 C 237.994 306.205,237.939 306.822,238.008 311.827 L 238.085 317.414 238.189 311.969 C 238.264 308.055,238.412 306.485,238.716 306.386 C 238.948 306.311,240.518 306.166,242.204 306.064 C 243.890 305.963,245.351 305.798,245.451 305.698 C 245.795 305.355,239.137 305.539,238.534 305.890 M269.774 306.049 C 269.662 306.342,269.667 306.678,269.785 306.796 C 269.903 306.915,270.000 306.830,270.000 306.609 C 270.000 306.351,270.681 306.207,271.897 306.207 L 273.793 306.207 273.793 322.931 C 273.793 336.063,273.701 339.662,273.362 339.689 C 271.961 339.797,270.137 339.534,269.919 339.192 C 269.756 338.934,269.664 339.007,269.660 339.397 C 269.658 339.728,269.772 340.008,269.914 340.017 C 272.162 340.169,273.530 340.163,273.794 339.999 C 274.153 339.778,274.319 306.434,273.964 305.859 C 273.602 305.273,270.009 305.436,269.774 306.049 M288.793 306.000 C 285.737 306.966,282.381 309.223,280.636 311.485 C 279.750 312.633,279.973 312.486,281.719 310.768 C 283.904 308.620,287.924 306.233,289.443 306.183 C 289.844 306.169,290.483 306.025,290.862 305.862 L 291.552 305.566 290.862 305.565 C 290.483 305.564,289.552 305.760,288.793 306.000 M299.483 306.166 C 300.621 306.495,301.920 306.965,302.369 307.210 C 302.819 307.455,303.087 307.494,302.966 307.298 C 302.665 306.811,299.120 305.511,298.177 305.542 C 297.757 305.555,298.345 305.836,299.483 306.166 M320.259 306.293 C 319.927 306.625,319.657 307.168,319.660 307.500 C 319.664 307.941,319.782 307.872,320.100 307.241 C 320.905 305.643,323.906 305.797,324.795 307.483 C 325.606 309.019,325.734 308.773,325.018 307.058 C 324.743 306.400,324.316 305.851,324.069 305.837 C 321.280 305.682,320.814 305.738,320.259 306.293 M337.670 305.916 C 337.434 306.152,337.251 306.663,337.263 307.052 C 337.284 307.708,337.308 307.702,337.604 306.965 C 337.888 306.255,338.116 306.182,339.737 306.275 L 341.552 306.379 341.642 320.849 C 341.691 328.807,341.846 335.433,341.987 335.573 C 342.127 335.713,342.164 329.047,342.069 320.759 L 341.897 305.690 339.997 305.589 C 338.818 305.526,337.936 305.650,337.670 305.916 M250.172 306.192 C 252.069 306.338,253.931 306.567,254.310 306.703 L 255.000 306.949 254.310 306.506 C 253.888 306.234,252.282 306.036,250.172 305.995 L 246.724 305.927 250.172 306.192 M255.201 307.025 C 255.556 307.343,257.586 308.276,257.586 308.121 C 257.586 307.923,255.675 306.897,255.304 306.897 C 255.169 306.897,255.122 306.954,255.201 307.025 M183.793 307.421 C 183.793 307.519,184.181 308.214,184.655 308.966 C 185.129 309.717,185.517 310.480,185.517 310.662 C 185.517 310.845,185.670 311.088,185.857 311.204 C 186.261 311.453,186.000 310.771,184.903 308.707 C 184.204 307.392,183.793 306.916,183.793 307.421 M304.397 308.438 C 305.754 309.555,305.779 309.896,304.605 311.313 C 303.480 312.670,303.182 312.676,301.260 311.379 C 300.417 310.810,299.597 310.345,299.437 310.345 C 299.278 310.345,299.954 310.888,300.939 311.552 C 303.197 313.072,303.439 313.061,304.960 311.378 C 306.457 309.722,306.476 309.544,305.259 308.701 C 303.673 307.603,303.209 307.462,304.397 308.438 M259.930 310.259 C 261.016 311.349,262.258 312.707,262.691 313.276 C 263.124 313.845,263.023 313.609,262.466 312.751 C 261.570 311.370,258.568 308.276,258.124 308.276 C 258.032 308.276,258.845 309.168,259.930 310.259 M319.022 309.153 C 318.444 310.421,318.554 310.691,319.179 309.538 C 319.470 309.000,319.645 308.495,319.566 308.416 C 319.487 308.337,319.242 308.669,319.022 309.153 M325.557 309.138 C 325.563 309.328,325.867 310.103,326.232 310.862 C 326.597 311.621,326.798 311.853,326.680 311.379 C 326.437 310.403,325.539 308.610,325.557 309.138 M218.747 312.586 C 218.748 314.483,218.805 315.215,218.875 314.213 C 218.945 313.211,218.944 311.659,218.874 310.764 C 218.803 309.870,218.746 310.690,218.747 312.586 M293.534 309.557 C 294.056 309.636,294.909 309.636,295.431 309.557 C 295.953 309.478,295.526 309.414,294.483 309.414 C 293.440 309.414,293.013 309.478,293.534 309.557 M290.517 310.000 C 289.639 310.378,290.545 310.378,291.724 310.000 C 292.417 309.778,292.451 309.722,291.897 309.714 C 291.517 309.708,290.897 309.837,290.517 310.000 M297.241 310.000 C 298.420 310.378,299.327 310.378,298.448 310.000 C 298.069 309.837,297.448 309.708,297.069 309.714 C 296.515 309.722,296.548 309.778,297.241 310.000 M223.534 310.238 C 223.866 310.324,224.409 310.324,224.741 310.238 C 225.073 310.151,224.802 310.080,224.138 310.080 C 223.474 310.080,223.203 310.151,223.534 310.238 M242.644 310.230 C 242.325 310.549,242.353 335.439,242.672 335.637 C 242.815 335.725,242.889 330.081,242.837 323.096 L 242.742 310.395 243.526 310.244 C 244.244 310.107,244.250 310.090,243.592 310.047 C 243.197 310.021,242.770 310.103,242.644 310.230 M249.052 310.238 C 249.384 310.324,249.927 310.324,250.259 310.238 C 250.591 310.151,250.319 310.080,249.655 310.080 C 248.991 310.080,248.720 310.151,249.052 310.238 M287.559 311.357 C 286.148 312.294,283.430 314.828,283.836 314.828 C 283.934 314.828,284.738 314.134,285.622 313.287 C 286.507 312.440,287.815 311.438,288.529 311.061 C 289.243 310.684,289.660 310.368,289.456 310.360 C 289.251 310.352,288.398 310.800,287.559 311.357 M253.357 311.209 C 254.493 311.731,254.893 312.021,257.382 314.123 L 258.793 315.316 257.605 314.037 C 256.174 312.498,254.279 311.178,253.103 310.900 C 252.472 310.751,252.540 310.834,253.357 311.209 M322.969 313.793 C 323.716 315.334,323.946 315.575,323.627 314.483 C 323.488 314.009,323.151 313.388,322.879 313.103 C 322.520 312.728,322.545 312.917,322.969 313.793 M73.042 313.879 C 73.262 314.306,73.830 315.703,74.305 316.984 C 74.779 318.265,75.869 321.108,76.727 323.302 C 78.646 328.210,78.864 327.931,73.111 327.931 C 66.365 327.931,66.572 328.137,68.418 323.276 C 69.066 321.569,70.191 318.582,70.919 316.638 C 72.344 312.829,72.438 312.708,73.042 313.879 M187.414 314.138 C 187.708 314.707,188.026 315.172,188.121 315.172 C 188.216 315.172,188.053 314.707,187.759 314.138 C 187.464 313.569,187.146 313.103,187.051 313.103 C 186.956 313.103,187.120 313.569,187.414 314.138 M100.345 315.948 C 100.345 316.517,99.738 315.870,99.542 315.092 C 99.352 314.338,99.362 314.334,99.845 314.980 C 100.120 315.348,100.345 315.784,100.345 315.948 M134.396 327.652 C 134.337 330.176,134.288 328.207,134.288 323.276 C 134.288 318.345,134.336 316.280,134.395 318.687 C 134.455 321.093,134.455 325.128,134.396 327.652 M277.913 315.737 C 277.723 316.238,277.631 316.711,277.709 316.790 C 277.787 316.868,278.016 316.458,278.218 315.880 C 278.666 314.593,278.396 314.467,277.913 315.737 M183.185 328.164 C 183.110 338.730,183.057 339.617,182.500 339.762 C 181.934 339.910,181.935 339.923,182.511 339.960 C 183.454 340.021,183.464 339.870,183.362 327.928 L 183.266 316.724 183.185 328.164 M210.509 328.961 C 210.517 339.545,210.535 339.821,211.207 339.940 C 211.850 340.054,211.856 340.030,211.295 339.600 C 210.751 339.181,210.685 338.147,210.598 328.621 L 210.502 318.103 210.509 328.961 M314.884 319.498 C 314.306 320.766,314.416 321.036,315.041 319.883 C 315.333 319.345,315.507 318.840,315.428 318.761 C 315.349 318.682,315.104 319.014,314.884 319.498 M260.393 319.310 C 260.393 319.595,260.527 320.138,260.690 320.517 C 260.876 320.952,260.986 321.016,260.986 320.690 C 260.986 320.405,260.853 319.862,260.690 319.483 C 260.503 319.048,260.393 318.984,260.393 319.310 M186.379 321.034 C 186.674 321.603,186.992 322.069,187.087 322.069 C 187.182 322.069,187.018 321.603,186.724 321.034 C 186.430 320.466,186.112 320.000,186.017 320.000 C 185.922 320.000,186.085 320.466,186.379 321.034 M235.431 320.963 C 235.763 321.302,236.092 321.440,236.163 321.268 C 236.233 321.096,236.078 320.820,235.818 320.655 C 235.012 320.144,234.798 320.314,235.431 320.963 M276.665 322.931 C 276.666 324.259,276.729 324.759,276.803 324.044 C 276.878 323.329,276.877 322.242,276.801 321.630 C 276.724 321.018,276.663 321.603,276.665 322.931 M124.385 325.426 C 124.306 325.950,124.239 325.603,124.237 324.655 C 124.234 323.707,124.299 323.278,124.381 323.702 C 124.463 324.126,124.465 324.902,124.385 325.426 M188.448 324.828 C 188.742 325.397,189.061 325.862,189.156 325.862 C 189.250 325.862,189.087 325.397,188.793 324.828 C 188.499 324.259,188.181 323.793,188.086 323.793 C 187.991 323.793,188.154 324.259,188.448 324.828 M235.431 324.555 C 234.798 325.203,235.012 325.373,235.818 324.862 C 236.078 324.697,236.233 324.422,236.163 324.250 C 236.092 324.078,235.763 324.215,235.431 324.555 M218.745 328.966 C 218.745 330.767,218.803 331.504,218.874 330.603 C 218.945 329.703,218.945 328.228,218.874 327.328 C 218.803 326.427,218.745 327.164,218.745 328.966 M46.451 328.358 C 46.368 328.787,46.298 328.517,46.294 327.759 C 46.290 327.000,46.358 326.649,46.444 326.979 C 46.530 327.308,46.533 327.929,46.451 328.358 M203.103 328.621 C 202.716 329.379,202.477 330.000,202.572 330.000 C 202.667 330.000,203.061 329.379,203.448 328.621 C 203.835 327.862,204.074 327.241,203.980 327.241 C 203.885 327.241,203.490 327.862,203.103 328.621 M319.224 328.187 C 320.599 328.253,322.849 328.253,324.224 328.187 C 325.599 328.122,324.474 328.068,321.724 328.068 C 318.974 328.068,317.849 328.122,319.224 328.187 M124.385 331.293 C 124.306 331.815,124.241 331.388,124.241 330.345 C 124.241 329.302,124.306 328.875,124.385 329.397 C 124.464 329.918,124.464 330.772,124.385 331.293 M256.708 332.500 L 255.345 333.966 256.810 332.602 C 258.173 331.335,258.434 331.034,258.173 331.034 C 258.117 331.034,257.458 331.694,256.708 332.500 M284.138 331.254 C 284.138 331.438,284.720 332.124,285.431 332.777 L 286.724 333.966 285.517 332.590 C 284.853 331.833,284.272 331.148,284.224 331.067 C 284.177 330.986,284.138 331.070,284.138 331.254 M316.034 332.069 C 316.414 332.232,316.957 332.365,317.241 332.365 C 317.567 332.365,317.504 332.256,317.069 332.069 C 316.690 331.906,316.147 331.773,315.862 331.773 C 315.536 331.773,315.600 331.882,316.034 332.069 M193.276 333.793 C 193.570 334.362,193.888 334.828,193.983 334.828 C 194.078 334.828,193.915 334.362,193.621 333.793 C 193.326 333.224,193.008 332.759,192.913 332.759 C 192.818 332.759,192.982 333.224,193.276 333.793 M302.553 333.534 L 301.897 334.310 302.672 333.653 C 303.435 333.007,303.461 333.007,304.224 333.653 L 305.000 334.310 304.343 333.534 C 303.982 333.108,303.579 332.759,303.448 332.759 C 303.317 332.759,302.915 333.108,302.553 333.534 M214.926 334.655 C 214.929 335.603,214.996 335.950,215.075 335.426 C 215.154 334.902,215.152 334.126,215.070 333.702 C 214.988 333.278,214.924 333.707,214.926 334.655 M280.001 333.621 C 280.717 334.617,281.726 335.589,281.715 335.272 C 281.709 335.122,281.210 334.534,280.605 333.966 C 280.000 333.397,279.728 333.241,280.001 333.621 M309.022 333.980 C 308.444 335.248,308.554 335.519,309.179 334.366 C 309.470 333.828,309.645 333.323,309.566 333.244 C 309.487 333.165,309.242 333.496,309.022 333.980 M305.644 335.237 C 305.743 335.556,305.497 336.255,305.098 336.788 L 304.373 337.759 305.329 336.850 C 306.137 336.082,306.221 335.841,305.875 335.298 C 305.552 334.791,305.503 334.778,305.644 335.237 M235.565 336.177 C 236.013 336.540,236.457 336.760,236.551 336.666 C 236.753 336.465,235.530 335.517,235.068 335.517 C 234.894 335.517,235.118 335.814,235.565 336.177 M249.397 335.755 C 249.728 335.842,250.272 335.842,250.603 335.755 C 250.935 335.668,250.664 335.597,250.000 335.597 C 249.336 335.597,249.065 335.668,249.397 335.755 M258.793 336.422 C 258.173 336.950,258.046 337.160,258.477 336.946 C 259.109 336.632,260.294 335.497,259.956 335.530 C 259.885 335.536,259.362 335.938,258.793 336.422 M282.760 336.325 C 283.233 336.864,283.931 337.465,284.310 337.660 C 285.036 338.034,285.015 338.012,283.105 336.377 L 281.899 335.345 282.760 336.325 M46.552 337.586 C 46.552 338.345,46.431 338.966,46.284 338.966 C 46.137 338.966,46.075 338.345,46.148 337.586 C 46.220 336.828,46.341 336.207,46.416 336.207 C 46.490 336.207,46.552 336.828,46.552 337.586 M294.052 336.450 C 294.478 336.532,295.177 336.532,295.603 336.450 C 296.030 336.368,295.681 336.301,294.828 336.301 C 293.974 336.301,293.625 336.368,294.052 336.450 M124.382 338.358 C 124.299 338.787,124.229 338.517,124.225 337.759 C 124.221 337.000,124.289 336.649,124.375 336.979 C 124.461 337.308,124.464 337.929,124.382 338.358 M214.875 337.948 C 214.849 338.622,214.641 339.359,214.414 339.586 C 214.099 339.901,214.098 340.000,214.407 340.000 C 214.910 340.000,215.283 338.626,215.076 337.535 C 214.966 336.959,214.908 337.079,214.875 337.948 M307.281 338.310 C 306.737 339.871,306.781 340.003,307.845 339.978 C 308.753 339.957,308.761 339.943,308.021 339.646 C 307.349 339.376,307.294 339.216,307.600 338.413 C 307.793 337.906,307.886 337.427,307.808 337.348 C 307.730 337.270,307.493 337.703,307.281 338.310 M144.341 338.878 C 143.964 339.254,143.706 338.655,143.976 338.032 C 144.233 337.441,144.251 337.442,144.394 338.044 C 144.476 338.391,144.452 338.766,144.341 338.878 M197.868 338.448 C 197.435 339.400,196.926 339.534,196.234 338.879 C 195.857 338.524,195.847 338.584,196.177 339.224 C 196.746 340.330,197.370 340.185,198.034 338.793 C 198.351 338.129,198.531 337.586,198.435 337.586 C 198.339 337.586,198.084 337.974,197.868 338.448 M218.738 338.767 C 218.769 339.335,219.019 339.835,219.310 339.913 C 219.656 340.006,219.696 339.958,219.431 339.768 C 219.213 339.611,218.956 339.095,218.859 338.621 C 218.708 337.878,218.691 337.899,218.738 338.767 M236.049 338.918 C 235.919 339.328,235.448 339.671,234.897 339.755 C 234.032 339.887,234.044 339.900,235.063 339.948 C 236.087 339.997,237.007 338.961,236.442 338.396 C 236.347 338.301,236.171 338.536,236.049 338.918 M238.151 339.483 C 238.260 339.767,238.577 340.000,238.855 340.000 C 239.293 340.000,239.291 339.931,238.842 339.483 C 238.558 339.198,238.241 338.966,238.139 338.966 C 238.036 338.966,238.042 339.198,238.151 339.483 M311.034 339.511 C 310.221 339.963,310.214 339.990,310.911 339.995 C 311.318 339.998,311.740 339.767,311.849 339.483 C 311.958 339.198,312.013 338.981,311.972 338.999 C 311.930 339.018,311.509 339.248,311.034 339.511 M333.352 339.681 C 333.774 340.120,334.206 340.392,334.312 340.286 C 334.418 340.180,334.073 339.821,333.545 339.488 L 332.586 338.882 333.352 339.681 " stroke="none" fill="#9ed9ba" fill-rule="evenodd"></path></g></svg>